<?xml version="1.0" encoding="UTF-8" standalone="no"?>
<!-- Generator: Adobe Illustrator 19.2.1, SVG Export Plug-In . SVG Version: 6.00 Build 0)  -->

<svg
   version="1.1"
   id="layer"
   x="0px"
   y="0px"
   viewBox="0 0 391200 180212.8"
   xml:space="preserve"
   width="391200"
   height="180212.8"
   xmlns:xlink="http://www.w3.org/1999/xlink"
   xmlns="http://www.w3.org/2000/svg"
   xmlns:svg="http://www.w3.org/2000/svg"><defs
   id="defs92" />&#10;<style
   type="text/css"
   id="style1">&#10;	.st0{fill:#00863C;}&#10;	.st1{clip-path:url(#SVGID_2_);fill:url(#SVGID_3_);}&#10;	.st2{clip-path:url(#SVGID_5_);}&#10;	.st3{clip-path:url(#SVGID_7_);}&#10;	.st4{clip-path:url(#SVGID_9_);fill:#004C2E;}&#10;	.st5{fill:#004C2E;}&#10;	.st6{fill:#004D19;}&#10;	.st7{clip-path:url(#SVGID_11_);fill:url(#SVGID_12_);}&#10;	.st8{clip-path:url(#SVGID_14_);fill:url(#SVGID_15_);}&#10;	.st9{clip-path:url(#SVGID_17_);fill:url(#SVGID_18_);}&#10;	.st10{clip-path:url(#SVGID_20_);fill:url(#SVGID_21_);}&#10;	.st11{clip-path:url(#SVGID_23_);fill:url(#SVGID_24_);}&#10;	.st12{clip-path:url(#SVGID_26_);fill:url(#SVGID_27_);}&#10;	.st13{clip-path:url(#SVGID_29_);fill:url(#SVGID_30_);}&#10;	.st14{clip-path:url(#SVGID_32_);fill:url(#SVGID_33_);}&#10;	.st15{clip-path:url(#SVGID_35_);fill:url(#SVGID_36_);}&#10;	.st16{clip-path:url(#SVGID_38_);fill:url(#SVGID_39_);}&#10;	.st17{clip-path:url(#SVGID_41_);fill:url(#SVGID_42_);}&#10;	.st18{clip-path:url(#SVGID_44_);fill:url(#SVGID_45_);}&#10;	.st19{clip-path:url(#SVGID_47_);fill:url(#SVGID_48_);}&#10;	.st20{clip-path:url(#SVGID_50_);fill:url(#SVGID_51_);}&#10;	.st21{clip-path:url(#SVGID_53_);fill:url(#SVGID_54_);}&#10;	.st22{clip-path:url(#SVGID_56_);fill:url(#SVGID_57_);}&#10;	.st23{clip-path:url(#SVGID_59_);fill:url(#SVGID_60_);}&#10;	.st24{clip-path:url(#SVGID_62_);fill:url(#SVGID_63_);}&#10;	.st25{clip-path:url(#SVGID_65_);fill:url(#SVGID_66_);}&#10;	.st26{clip-path:url(#SVGID_68_);fill:url(#SVGID_69_);}&#10;	.st27{clip-path:url(#SVGID_71_);fill:url(#SVGID_72_);}&#10;	.st28{clip-path:url(#SVGID_74_);fill:url(#SVGID_75_);}&#10;	.st29{clip-path:url(#SVGID_77_);fill:url(#SVGID_78_);}&#10;	.st30{fill:#FFFFFF;}&#10;</style>&#10;<g
   id="g1"
   transform="translate(-14018,-119316)">&#10;	<path
   class="st0"
   d="m 531.1,227.8 c -10.5,-4.8 -21.7,-9.2 -33.5,-13.3 -50.7,-17.3 -112,-26.6 -176.4,-26.6 -79.3,0 -153.8,14.2 -209.8,39.9 -54.8,25.1 -85,58.2 -85,93 0,16 6.4,31.7 18.7,46.4 14.3,17.2 36.7,33 66.2,46.6 55.9,25.7 130.5,39.8 209.8,39.8 79.4,0 153.9,-14.2 209.9,-39.8 54.7,-25.2 84.9,-58.2 84.9,-93 0.1,-34.8 -30.1,-67.8 -84.8,-93"
   id="path1" />&#10;</g>&#10;<g
   id="g6"
   transform="translate(-14018,-119316)">&#10;	<defs
   id="defs1"><path
     id="SVGID_1_"
     d="m 21.5,321.2 c 0,76.3 134.3,138.2 300,138.2 165.7,0 300,-61.9 300,-138.2 0,-76.3 -134.3,-138.2 -300,-138.2 -165.7,0 -300,61.9 -300,138.2" /></defs>&#10;	<clipPath
   id="SVGID_2_">&#10;		<use
   xlink:href="#SVGID_1_"
   style="overflow:visible"
   id="use1" />&#10;	</clipPath>&#10;	&#10;		<radialGradient
   id="SVGID_3_"
   cx="23.201099"
   cy="730.27441"
   r="8.1777"
   gradientTransform="matrix(54.7654,0,0,25.2314,-1056.7579,-18234.783)"
   gradientUnits="userSpaceOnUse">&#10;		<stop
   offset="0"
   style="stop-color:#79BC2A"
   id="stop1" />&#10;		<stop
   offset="0.1011"
   style="stop-color:#79BC2A"
   id="stop2" />&#10;		<stop
   offset="0.5393"
   style="stop-color:#00863C"
   id="stop3" />&#10;		<stop
   offset="0.6863"
   style="stop-color:#006F2E"
   id="stop4" />&#10;		<stop
   offset="0.8813"
   style="stop-color:#00561F"
   id="stop5" />&#10;		<stop
   offset="1"
   style="stop-color:#004D19"
   id="stop6" />&#10;	</radialGradient>&#10;	<rect
   x="21.5"
   y="183"
   class="st1"
   width="600"
   height="276.39999"
   clip-path="url(#SVGID_2_)"
   id="rect6"
   style="fill:url(#SVGID_3_)" />&#10;</g>&#10;<g
   id="g11"
   transform="translate(-14018,-119316)">&#10;	<defs
   id="defs6"><path
     id="SVGID_4_"
     d="m 21.6,320.8 c 0,17.7 7.3,34.7 20.6,50.3 43.8,51.1 152.1,87.4 279,87.4 165.5,0 299.7,-61.6 299.7,-137.7 0,-45.1 -47.2,-85.2 -120.2,-110.3 -50,-17.2 -112.1,-27.4 -179.5,-27.4 -165.4,0 -299.6,61.6 -299.6,137.7" /></defs>&#10;	<clipPath
   id="SVGID_5_">&#10;		<use
   xlink:href="#SVGID_4_"
   style="overflow:visible"
   id="use6" />&#10;	</clipPath>&#10;	<g
   class="st2"
   clip-path="url(#SVGID_5_)"
   id="g10">&#10;		<g
   id="g9">&#10;			<defs
   id="defs7"><rect
     id="SVGID_6_"
     x="-2.5999999"
     y="170.2"
     width="646.20001"
     height="301.10001" /></defs>&#10;			<clipPath
   id="SVGID_7_">&#10;				<use
   xlink:href="#SVGID_6_"
   style="overflow:visible"
   id="use7" />&#10;			</clipPath>&#10;			<g
   class="st3"
   clip-path="url(#SVGID_7_)"
   id="g8">&#10;				<defs
   id="defs8"><rect
     id="SVGID_8_"
     x="-2.5999999"
     y="170.2"
     width="646.20001"
     height="301.10001" /></defs>&#10;				<clipPath
   id="SVGID_9_">&#10;					<use
   xlink:href="#SVGID_8_"
   style="overflow:visible"
   id="use8" />&#10;				</clipPath>&#10;				<path
   class="st4"
   d="M 517,201.2 C 462.7,181.8 394.7,170.1 320.5,170.1 141.3,170.2 -2.6,238 -2.6,321 c 0,20.8 9.1,40.7 25.5,58.7 49,53.8 163.4,91.5 297.6,91.5 179.3,0 323,-67.3 323,-150.2 0,-48.7 -49.4,-92.2 -126.5,-119.8 M 324.3,462.9 C 197.4,462.9 89,426.7 45.3,375.5 31.9,359.9 24.7,342.9 24.7,325.2 c 0,-76 134.1,-137.7 299.6,-137.7 67.2,0 129.4,10.2 179.4,27.4 73,25.1 120.2,65.2 120.2,110.3 0,76 -134.1,137.7 -299.6,137.7"
   clip-path="url(#SVGID_9_)"
   id="path8" />&#10;			</g>&#10;		</g>&#10;	</g>&#10;</g>&#10;<g
   id="g17"
   transform="translate(-14018,-119316)">&#10;	<path
   class="st5"
   d="m 400.3,304 h 20.2 l 3.7,-10.3 H 404 l 5.8,-16.2 h -1.3 l -44.2,25.1 -0.4,1.4 h 15.5 L 363,349.6 c -4.7,13.1 3.9,23.9 19.1,23.9 12.2,0 26.1,-6.5 30.6,-14.8 l -0.6,-0.9 c -6.4,3 -13.5,4.4 -16.7,4.4 -9.1,0 -14,-5.4 -11,-13.7 z"
   id="path11" />&#10;	<path
   class="st5"
   d="m 456.3,304 h 24.1 l 3.7,-10.3 H 460 l 5.8,-16.2 h -1.3 l -39.9,25.1 -0.4,1.4 h 11.3 L 419,349.6 c -4.7,13.1 3.6,23.9 17.8,23.9 11.4,0 24.5,-6.5 28.8,-14.8 l -0.7,-0.9 c -6,3 -12.7,4.4 -15.6,4.4 -8.6,0 -12,-5.4 -9,-13.7 z"
   id="path12" />&#10;	<path
   class="st5"
   d="m 359.6,333.2 c -6.5,22.4 -29.7,40.6 -51.8,40.6 -22.1,0 -34.8,-18.2 -28.3,-40.6 6.5,-22.4 29.7,-40.6 51.8,-40.6 22.1,-0.1 34.8,18.1 28.3,40.6 m -29.3,-31 c -12.8,0 -22.7,13.9 -28.6,30.9 -5.9,17.1 -5.6,30.9 7.2,30.9 12.8,0 22.7,-13.8 28.6,-30.9 5.9,-17 5.6,-30.9 -7.2,-30.9"
   id="path13" />&#10;	<path
   class="st5"
   d="m 226.5,333 c 5,-17.3 18.2,-30.7 29.2,-30.7 11,0 17.6,11.3 16.8,26.7 h 1.2 l 13.2,-36.5 h -1 l -13.8,6.3 c -4.8,-4 -10.1,-6.4 -17.5,-6.4 -20.6,0 -42.7,17.3 -49.8,40.8 -6.8,22.6 6.5,40.4 27.5,40.4 15.6,0 33.3,-10.9 38.8,-23.2 l -0.8,-0.7 c -8.8,7.2 -20.8,13.5 -29.4,13.5 -14.6,0.1 -19.4,-13 -14.4,-30.2"
   id="path14" />&#10;	<path
   class="st5"
   d="m 167,302.2 c 15.7,6.7 34.5,13.5 30.7,36.8 -3.2,19.4 -22.3,34.9 -45.3,34.9 -11.7,0 -24.5,-3.9 -31.9,-9.2 l -19.3,9.3 h -1 l 18.5,-51.6 h 1 c 1.5,28.3 14.6,41.6 32.8,41.6 11.4,0 20.8,-7.5 22.4,-16.4 2.1,-11.8 -8.9,-16.4 -21.1,-21.4 -14.9,-6.1 -31.5,-14.7 -27.9,-35.7 3.2,-18.5 22.3,-34.2 45.3,-34.2 10.6,0 20.8,3 28.4,8.2 l 17.7,-8.1 h 1 l -15,42 h -1.1 c -2,-18.5 -14,-32.1 -31.6,-32.1 -11.3,0 -21.3,6.4 -22.7,15.3 -1.6,10.8 7.9,15.7 19.1,20.6"
   id="path15" />&#10;	<path
   class="st5"
   d="m 548.6,292.6 -11.9,5.4 c -6,-3.8 -13.9,-6 -21.1,-6 -16.7,0 -30.5,10.6 -32.7,23.5 -2.6,14.6 9.4,21 20.2,25.3 8.8,3.5 16.8,6.9 15.3,15.1 -1.1,6.2 -8,10.9 -16.2,10.9 -13.2,0 -21.8,-9 -23,-28.7 h -1 l -12.7,35.7 h 1 l 13.2,-6 c 5.4,3.5 14.3,6 22.4,6 16.6,0 31.2,-9.8 33.5,-23.3 2.8,-16.2 -11.7,-22.1 -23,-26.8 -8.1,-3.3 -15,-6.7 -13.8,-14.4 1,-6.2 8.1,-10.4 16.3,-10.4 12.8,0 21.4,9.5 22.9,22.3 h 1.3 l 10.3,-28.7 h -1 z"
   id="path16" />&#10;	<path
   class="st6"
   d="m 551.7,295.8 -2.1,1 1.1,-3.1 -3.4,-4.1 h -1.1 l -11.9,5.3 c -6.1,-3.7 -13.9,-6 -21.2,-6 -11.6,0 -21.8,5.2 -27.7,12.6 l 1.7,-4.6 h -2.9 l 0.7,-2.1 -3.4,-4.2 h -16.3 l 3.6,-10 h -1.3 l -2,1.3 1.2,-3.3 -3.5,-4.2 H 462 l -35.7,22.5 h -1.9 l 0.7,-2.1 -3.4,-4.2 -2.2,6.2 0.7,-2.1 1.5,-4.2 h -12.5 l 3.6,-10 h -1.3 l -2,1.1 1.1,-3.1 -3.4,-4.2 H 406 l -44.2,25.2 -0.4,1.3 3.4,4.2 h 3.8 l -1.2,0.7 -0.4,1.4 h 7.8 l -14.1,39.4 c -2.8,7.8 -0.9,14.6 4.2,19 0.9,1.6 2.2,3.1 3.6,4.3 3.5,4.2 9.3,6.8 16.8,6.8 12.2,0 26,-6.5 30.6,-14.8 L 415,361 c -1,0.5 -2.1,0.9 -3.2,1.3 0.6,-0.8 1.3,-1.6 1.7,-2.5 l -3.5,-4.2 -0.6,-0.8 c -6.4,3 -13.5,4.4 -16.6,4.4 -2.4,0 -4.5,-0.4 -6.2,-1 -0.4,-1.9 -0.2,-4 0.7,-6.5 l 15.9,-44.5 h 20.2 l 1,-2.7 0.5,0.6 h 3.7 l -1.1,0.7 -0.4,1.4 h 3.5 l -14.2,39.4 c -2.8,7.9 -0.9,15 4.1,19.3 0.9,1.7 2.2,3.2 3.8,4.4 3.3,3.9 8.7,6.4 15.4,6.4 8.6,0 18.3,-3.7 24.3,-9.2 l -1.2,3.2 3.4,4.1 h 1 l 2.2,-1 -1.1,3.1 h 1 l 13.2,-6 c 5.4,3.5 14.3,6 22.5,6 16.6,0 31.2,-9.8 33.5,-23.3 1.4,-8.3 -1.7,-13.8 -6.5,-17.9 -0.4,-0.4 -0.8,-0.8 -1.2,-1.2 -4.3,-7 -13.2,-10.7 -20.8,-13.8 -2.9,-1.2 -5.7,-2.5 -8,-3.9 -0.4,-1.3 -0.5,-2.7 -0.3,-4.3 1,-6.2 8.1,-10.4 16.3,-10.4 5.3,0 9.8,1.6 13.4,4.4 2.1,3.3 3.4,7.3 3.9,11.7 l 3.4,4.1 h 1.3 l 0.3,-0.8 c 0.2,1 0.4,1.9 0.5,2.9 h 1.4 l 10.3,-28.6 z m -87.7,74.9 4.7,-2.1 1.5,-0.7 z m 42.1,-26.9 c 3.5,1.4 6.8,2.7 9.5,4.4 0.4,1.3 0.6,2.8 0.2,4.5 -1.2,6.1 -8,10.9 -16.2,10.9 -4.8,0 -9,-1.2 -12.5,-3.7 -2.7,-4.6 -4.4,-10.8 -4.9,-18.7 h -1.1 l -0.6,1.9 c -0.2,-1.2 -0.3,-2.6 -0.4,-3.9 l -3.4,-4.2 0.4,3.9 0.7,4.1 c -0.5,-2.5 -0.9,-5.1 -1,-8 h -1.1 l -9.6,26.7 c -0.5,0.2 -0.9,0.4 -1.3,0.5 0.7,-0.8 1.2,-1.7 1.7,-2.6 l -3.4,-4.2 -0.7,-0.8 c -6.1,3 -12.7,4.4 -15.7,4.4 -1.7,0 -3.1,-0.2 -4.4,-0.6 -0.3,-1.9 0.1,-4.3 1,-6.9 l 16,-44.5 H 482 c -0.8,1.7 -1.3,3.5 -1.6,5.3 -1.3,7.6 1.2,12.9 5.5,16.9 1.1,1.7 2.5,3.2 4,4.6 4,4.7 10.3,7.7 16.2,10 M 354.8,302.7 c -0.3,-0.3 -0.6,-0.7 -0.9,-0.9 -5.1,-7.6 -13.9,-12.3 -25.1,-12.3 -19.1,0 -38.9,13.5 -48.1,31.6 l 9.2,-25.5 h -1 l -2.2,1 1.1,-3 -3.4,-4.2 h -1 l -13.8,6.3 c -4.9,-4 -10.1,-6.4 -17.5,-6.4 -20.6,0 -42.7,17.3 -49.8,40.8 -0.4,1.5 -0.8,2.9 -1.1,4.4 -0.5,-7.5 -3.7,-12.8 -8.4,-16.9 -0.3,-0.4 -0.6,-0.7 -0.9,-1 -5.8,-8.8 -17.2,-13.2 -27.3,-17.5 -4.7,-2 -9,-4 -12.4,-6.5 -1.1,-2.3 -1.5,-4.9 -1.1,-8 1.4,-8.9 11.3,-15.4 22.6,-15.4 7.6,0 14.2,2.6 19.3,6.9 3.6,5.3 6,11.7 6.7,19 l 3.4,4.2 h 1.1 l 0.6,-1.4 c 0.2,1.1 0.4,2.3 0.5,3.5 h 1.1 l 15,-42 h -1 l -2.2,1 1.1,-3 -3.5,-4.2 -3.5,9.9 1.3,-3.6 2.2,-6.3 h -1 l -17.7,8.1 c -7.6,-5.2 -17.7,-8.2 -28.4,-8.2 -23,0 -42.1,15.7 -45.3,34.2 -1.8,10.5 1.5,17.9 7,23.4 1.4,2 2.9,3.7 4.7,5.3 5.6,6 13.9,9.9 21.8,13.2 5.5,2.3 10.7,4.4 14.6,7.2 1,2.3 1.5,4.9 0.9,8 -1.6,8.9 -11.1,16.4 -22.4,16.4 -7.3,0 -13.9,-2.2 -19.2,-6.7 -4.5,-6.8 -7.4,-16.3 -8.1,-28.6 h -1.1 l -0.7,2 c -0.2,-1.3 -0.3,-2.7 -0.3,-4.1 l -3.5,-4.1 0.4,4 0.5,4.3 c -0.4,-2.6 -0.7,-5.4 -0.9,-8.3 H 116 l -18.6,51.6 3.5,4.1 h 1 l 2.2,-1 -1.1,3.1 h 1 l 19.3,-9.3 c 7.4,5.3 20.2,9.2 31.9,9.2 22.5,0 41.3,-14.9 45,-33.8 0.3,7.8 3.3,14.6 8.2,19.4 1.2,1.9 2.8,3.6 4.5,5.1 5.2,5.7 12.9,9.1 22,9.1 15.6,0 33.3,-10.9 38.9,-23.2 l -0.8,-0.7 c -1.2,0.9 -2.5,1.9 -3.7,2.8 0.9,-1.4 1.8,-2.7 2.4,-4.2 l -3.4,-4.2 -0.8,-0.7 c -8.8,7.1 -20.8,13.5 -29.5,13.5 -3.5,0 -6.4,-0.8 -8.8,-2.2 -2.5,-5.4 -2.5,-13.1 0,-21.9 5,-17.2 18.2,-30.7 29.2,-30.7 2.9,0 5.6,0.8 7.8,2.3 2.6,4.6 3.8,10.9 3.4,18.1 l 3.5,4.1 h 1.2 l 1,-2.6 c 0,1.5 0,3.1 0,4.6 h 1 c -3,12.5 -0.1,23.5 7.1,30.6 1.3,1.9 2.8,3.6 4.5,5.1 5.3,5.7 13.1,9.2 22.8,9.2 22.1,0 45.3,-18.2 51.8,-40.6 4.2,-13.8 0.8,-26.2 -7.7,-33.4 m -153,-10.5 0.7,-2 -1.8,5 z m -103.1,78.5 4.7,-2.3 3.5,-1.7 z m 169,-21.7 c -2.4,4.5 -5.6,7.5 -7.8,9.4 3.3,-2.9 6,-6.1 7.8,-9.4 m 3.4,-23.2 1.8,-5 1,-2.6 z M 335,330 c -5.9,17.1 -15.8,30.9 -28.6,30.9 -1.8,0 -3.3,-0.3 -4.6,-0.8 -1.7,-5.7 -0.4,-14.2 3,-23.9 5.9,-17.1 15.8,-30.9 28.6,-30.9 1.8,0 3.2,0.3 4.5,0.8 1.8,5.7 0.5,14.3 -2.9,23.9"
   id="path17" />&#10;</g>&#10;<g
   id="g19"
   transform="translate(-14018,-119316)">&#10;	<defs
   id="defs17"><polygon
     id="SVGID_10_"
     points="361.7,302 372.3,302 373.8,297.8 367.1,297.8 358.3,297.8 " /></defs>&#10;	<clipPath
   id="SVGID_11_">&#10;		<use
   xlink:href="#SVGID_10_"
   style="overflow:visible"
   id="use17" />&#10;	</clipPath>&#10;	&#10;		<linearGradient
   id="SVGID_12_"
   gradientUnits="userSpaceOnUse"
   x1="48.938801"
   y1="697.6496"
   x2="57.116501"
   y2="697.6496"
   gradientTransform="matrix(0,10.4361,-10.4361,0,7646.7617,-225.3499)">&#10;		<stop
   offset="0"
   style="stop-color:#C8C9CA"
   id="stop17" />&#10;		<stop
   offset="7.865170e-002"
   style="stop-color:#C8C9CA"
   id="stop18" />&#10;		<stop
   offset="1"
   style="stop-color:#939494"
   id="stop19" />&#10;	</linearGradient>&#10;	<rect
   x="358.29999"
   y="297.79999"
   class="st7"
   width="15.6"
   height="4.0999999"
   clip-path="url(#SVGID_11_)"
   id="rect19"
   style="fill:url(#SVGID_12_)" />&#10;</g>&#10;<g
   id="g22"
   transform="translate(-14018,-119316)">&#10;	<defs
   id="defs19"><path
     id="SVGID_13_"
     d="m 415,297.8 h -20.2 l -16,44.5 c -1.9,5.4 -0.6,9.5 3.1,11.8 -0.7,-2.1 -0.7,-4.6 0.4,-7.6 l 16,-44.6 h 20.2 l 1.5,-4.1 h -1.4 l 0.5,-1.4 1.8,-1.1 1.3,-3.7 -3.5,-4.2 z" /></defs>&#10;	<clipPath
   id="SVGID_14_">&#10;		<use
   xlink:href="#SVGID_13_"
   style="overflow:visible"
   id="use19" />&#10;	</clipPath>&#10;	&#10;		<linearGradient
   id="SVGID_15_"
   gradientUnits="userSpaceOnUse"
   x1="48.754799"
   y1="695.01343"
   x2="56.932499"
   y2="695.01343"
   gradientTransform="matrix(0,10.5032,-10.5032,0,7699.3486,-226.7684)">&#10;		<stop
   offset="0"
   style="stop-color:#C8C9CA"
   id="stop20" />&#10;		<stop
   offset="7.865170e-002"
   style="stop-color:#C8C9CA"
   id="stop21" />&#10;		<stop
   offset="1"
   style="stop-color:#939494"
   id="stop22" />&#10;	</linearGradient>&#10;	<rect
   x="376.79999"
   y="287.5"
   class="st8"
   width="45.299999"
   height="66.599998"
   clip-path="url(#SVGID_14_)"
   id="rect22"
   style="fill:url(#SVGID_15_)" />&#10;</g>&#10;<g
   id="g25"
   transform="translate(-14018,-119316)">&#10;	<defs
   id="defs22"><polygon
     id="SVGID_16_"
     points="403.4,287.5 407.7,275.5 404.3,271.3 401.8,278.1 398.4,287.5 " /></defs>&#10;	<clipPath
   id="SVGID_17_">&#10;		<use
   xlink:href="#SVGID_16_"
   style="overflow:visible"
   id="use22" />&#10;	</clipPath>&#10;	&#10;		<linearGradient
   id="SVGID_18_"
   gradientUnits="userSpaceOnUse"
   x1="48.798"
   y1="694.67181"
   x2="56.9758"
   y2="694.67181"
   gradientTransform="matrix(0,10.487,-10.487,0,7688.063,-226.427)">&#10;		<stop
   offset="0"
   style="stop-color:#C8C9CA"
   id="stop23" />&#10;		<stop
   offset="7.865170e-002"
   style="stop-color:#C8C9CA"
   id="stop24" />&#10;		<stop
   offset="1"
   style="stop-color:#939494"
   id="stop25" />&#10;	</linearGradient>&#10;	<rect
   x="398.39999"
   y="271.29999"
   class="st9"
   width="9.3000002"
   height="16.200001"
   clip-path="url(#SVGID_17_)"
   id="rect25"
   style="fill:url(#SVGID_18_)" />&#10;</g>&#10;<g
   id="g28"
   transform="translate(-14018,-119316)">&#10;	<defs
   id="defs25"><path
     id="SVGID_19_"
     d="m 401.4,358.9 c -6.4,5 -16,8.4 -24.9,8.4 -6.3,0 -11.4,-1.8 -14.9,-4.9 3.1,5.5 9.6,9.1 18.3,9.1 12.2,0 26,-6.5 30.6,-14.8 l -3.5,-4.2 c -2,3.6 -4.2,5.2 -5.6,6.4" /></defs>&#10;	<clipPath
   id="SVGID_20_">&#10;		<use
   xlink:href="#SVGID_19_"
   style="overflow:visible"
   id="use25" />&#10;	</clipPath>&#10;	&#10;		<linearGradient
   id="SVGID_21_"
   gradientUnits="userSpaceOnUse"
   x1="48.877998"
   y1="696.02917"
   x2="57.055698"
   y2="696.02917"
   gradientTransform="matrix(0,10.4639,-10.4639,0,7669.2822,-225.914)">&#10;		<stop
   offset="0"
   style="stop-color:#C8C9CA"
   id="stop26" />&#10;		<stop
   offset="7.865170e-002"
   style="stop-color:#C8C9CA"
   id="stop27" />&#10;		<stop
   offset="1"
   style="stop-color:#939494"
   id="stop28" />&#10;	</linearGradient>&#10;	<rect
   x="361.70001"
   y="352.60001"
   class="st10"
   width="48.900002"
   height="18.9"
   clip-path="url(#SVGID_20_)"
   id="rect28"
   style="fill:url(#SVGID_21_)" />&#10;</g>&#10;<g
   id="g31"
   transform="translate(-14018,-119316)">&#10;	<defs
   id="defs28"><polygon
     id="SVGID_22_"
     points="422,302 428.3,302 429.8,297.8 426.9,297.8 418.5,297.8 " /></defs>&#10;	<clipPath
   id="SVGID_23_">&#10;		<use
   xlink:href="#SVGID_22_"
   style="overflow:visible"
   id="use28" />&#10;	</clipPath>&#10;	&#10;		<linearGradient
   id="SVGID_24_"
   gradientUnits="userSpaceOnUse"
   x1="48.938801"
   y1="692.76093"
   x2="57.116501"
   y2="692.76093"
   gradientTransform="matrix(0,10.4361,-10.4361,0,7653.8696,-225.3499)">&#10;		<stop
   offset="0"
   style="stop-color:#C8C9CA"
   id="stop29" />&#10;		<stop
   offset="7.865170e-002"
   style="stop-color:#C8C9CA"
   id="stop30" />&#10;		<stop
   offset="1"
   style="stop-color:#939494"
   id="stop31" />&#10;	</linearGradient>&#10;	<rect
   x="418.5"
   y="297.79999"
   class="st11"
   width="11.3"
   height="4.0999999"
   clip-path="url(#SVGID_23_)"
   id="rect31"
   style="fill:url(#SVGID_24_)" />&#10;</g>&#10;<g
   id="g34"
   transform="translate(-14018,-119316)">&#10;	<defs
   id="defs31"><path
     id="SVGID_25_"
     d="m 474.8,297.8 h -24.1 l -16,44.5 c -2.1,5.9 -1.1,10.3 2.8,12.3 -0.7,-2.2 -0.5,-5 0.7,-8.2 l 16,-44.6 h 24.1 l 3.7,-10.3 -3.5,-4.2 z" /></defs>&#10;	<clipPath
   id="SVGID_26_">&#10;		<use
   xlink:href="#SVGID_25_"
   style="overflow:visible"
   id="use31" />&#10;	</clipPath>&#10;	&#10;		<linearGradient
   id="SVGID_27_"
   gradientUnits="userSpaceOnUse"
   x1="48.776699"
   y1="690.15649"
   x2="56.954498"
   y2="690.15649"
   gradientTransform="matrix(0,10.495,-10.495,0,7700.4663,-226.5951)">&#10;		<stop
   offset="0"
   style="stop-color:#C8C9CA"
   id="stop32" />&#10;		<stop
   offset="7.865170e-002"
   style="stop-color:#C8C9CA"
   id="stop33" />&#10;		<stop
   offset="1"
   style="stop-color:#939494"
   id="stop34" />&#10;	</linearGradient>&#10;	<rect
   x="432.60001"
   y="287.5"
   class="st12"
   width="49.299999"
   height="67.199997"
   clip-path="url(#SVGID_26_)"
   id="rect34"
   style="fill:url(#SVGID_27_)" />&#10;</g>&#10;<g
   id="g37"
   transform="translate(-14018,-119316)">&#10;	<defs
   id="defs34"><path
     id="SVGID_28_"
     d="m 454.6,359 c -6.1,5 -15.1,8.3 -23.3,8.3 -5.7,0 -10.4,-1.7 -13.7,-4.6 3,5.3 9.1,8.7 17.1,8.7 11.4,0 24.5,-6.5 28.8,-14.8 l -3.4,-4.2 c -1.3,2.2 -3,4.5 -5.5,6.6" /></defs>&#10;	<clipPath
   id="SVGID_29_">&#10;		<use
   xlink:href="#SVGID_28_"
   style="overflow:visible"
   id="use34" />&#10;	</clipPath>&#10;	&#10;		<linearGradient
   id="SVGID_30_"
   gradientUnits="userSpaceOnUse"
   x1="48.877998"
   y1="691.46619"
   x2="57.055698"
   y2="691.46619"
   gradientTransform="matrix(0,10.4639,-10.4639,0,7675.9341,-225.914)">&#10;		<stop
   offset="0"
   style="stop-color:#C8C9CA"
   id="stop35" />&#10;		<stop
   offset="7.865170e-002"
   style="stop-color:#C8C9CA"
   id="stop36" />&#10;		<stop
   offset="1"
   style="stop-color:#939494"
   id="stop37" />&#10;	</linearGradient>&#10;	<rect
   x="417.60001"
   y="352.60001"
   class="st13"
   width="45.900002"
   height="18.9"
   clip-path="url(#SVGID_29_)"
   id="rect37"
   style="fill:url(#SVGID_30_)" />&#10;</g>&#10;<g
   id="g40"
   transform="translate(-14018,-119316)">&#10;	<defs
   id="defs37"><polygon
     id="SVGID_31_"
     points="459.4,287.5 463.7,275.5 460.2,271.3 457.7,278.4 454.4,287.5 " /></defs>&#10;	<clipPath
   id="SVGID_32_">&#10;		<use
   xlink:href="#SVGID_31_"
   style="overflow:visible"
   id="use37" />&#10;	</clipPath>&#10;	&#10;		<linearGradient
   id="SVGID_33_"
   gradientUnits="userSpaceOnUse"
   x1="48.798"
   y1="689.98468"
   x2="56.9758"
   y2="689.98468"
   gradientTransform="matrix(0,10.487,-10.487,0,7694.9106,-226.427)">&#10;		<stop
   offset="0"
   style="stop-color:#C8C9CA"
   id="stop38" />&#10;		<stop
   offset="7.865170e-002"
   style="stop-color:#C8C9CA"
   id="stop39" />&#10;		<stop
   offset="1"
   style="stop-color:#939494"
   id="stop40" />&#10;	</linearGradient>&#10;	<rect
   x="454.39999"
   y="271.29999"
   class="st14"
   width="9.3000002"
   height="16.200001"
   clip-path="url(#SVGID_32_)"
   id="rect40"
   style="fill:url(#SVGID_33_)" />&#10;</g>&#10;<g
   id="g43"
   transform="translate(-14018,-119316)">&#10;	<defs
   id="defs40"><path
     id="SVGID_34_"
     d="m 296.2,327 c -4.8,13.7 -5.5,25.2 0.9,29.3 -2.4,-5.6 -1.1,-14.8 2.5,-25.2 5.9,-17.1 15.8,-30.9 28.6,-30.9 2.6,0 4.6,0.6 6.2,1.6 -1.5,-3.6 -4.6,-5.7 -9.6,-5.7 -12.9,0 -22.8,13.8 -28.6,30.9" /></defs>&#10;	<clipPath
   id="SVGID_35_">&#10;		<use
   xlink:href="#SVGID_34_"
   style="overflow:visible"
   id="use40" />&#10;	</clipPath>&#10;	&#10;		<linearGradient
   id="SVGID_36_"
   gradientUnits="userSpaceOnUse"
   x1="48.750301"
   y1="702.27521"
   x2="56.928001"
   y2="702.27521"
   gradientTransform="matrix(0,10.5026,-10.5026,0,7688.2813,-226.7646)">&#10;		<stop
   offset="0"
   style="stop-color:#C8C9CA"
   id="stop41" />&#10;		<stop
   offset="7.865170e-002"
   style="stop-color:#C8C9CA"
   id="stop42" />&#10;		<stop
   offset="1"
   style="stop-color:#939494"
   id="stop43" />&#10;	</linearGradient>&#10;	<rect
   x="290.70001"
   y="296.10001"
   class="st15"
   width="43.700001"
   height="60.200001"
   clip-path="url(#SVGID_35_)"
   id="rect43"
   style="fill:url(#SVGID_36_)" />&#10;</g>&#10;<g
   id="g46"
   transform="translate(-14018,-119316)">&#10;	<defs
   id="defs43"><path
     id="SVGID_37_"
     d="m 354.1,327 c -6.5,22.4 -29.7,40.6 -51.8,40.6 -9,0 -16.5,-3 -21.7,-8.1 5.1,7.6 13.9,12.3 25.1,12.3 22.1,0 45.3,-18.2 51.8,-40.6 3.9,-13.3 0.9,-25.1 -6.6,-32.5 4.9,7.3 6.4,17.2 3.2,28.3" /></defs>&#10;	<clipPath
   id="SVGID_38_">&#10;		<use
   xlink:href="#SVGID_37_"
   style="overflow:visible"
   id="use43" />&#10;	</clipPath>&#10;	&#10;		<linearGradient
   id="SVGID_39_"
   gradientUnits="userSpaceOnUse"
   x1="48.727001"
   y1="701.58508"
   x2="56.9048"
   y2="701.58508"
   gradientTransform="matrix(0,10.5108,-10.5108,0,7695.2061,-226.9385)">&#10;		<stop
   offset="0"
   style="stop-color:#C8C9CA"
   id="stop44" />&#10;		<stop
   offset="7.865170e-002"
   style="stop-color:#C8C9CA"
   id="stop45" />&#10;		<stop
   offset="1"
   style="stop-color:#939494"
   id="stop46" />&#10;	</linearGradient>&#10;	<rect
   x="280.60001"
   y="298.60001"
   class="st16"
   width="80.800003"
   height="73.099998"
   clip-path="url(#SVGID_38_)"
   id="rect46"
   style="fill:url(#SVGID_39_)" />&#10;</g>&#10;<g
   id="g49"
   transform="translate(-14018,-119316)">&#10;	<defs
   id="defs46"><path
     id="SVGID_40_"
     d="m 256.9,355.3 c -8.1,7 -19.6,12 -30.2,12 -8.6,0 -15.8,-3 -21,-8 5.1,7.5 13.7,12.2 24.5,12.2 15.6,0 33.3,-10.9 38.9,-23.2 l -3.5,-4.2 c -2.5,5.6 -6.2,9.1 -8.7,11.2" /></defs>&#10;	<clipPath
   id="SVGID_41_">&#10;		<use
   xlink:href="#SVGID_40_"
   style="overflow:visible"
   id="use46" />&#10;	</clipPath>&#10;	&#10;		<linearGradient
   id="SVGID_42_"
   gradientUnits="userSpaceOnUse"
   x1="48.740501"
   y1="708.5639"
   x2="56.918201"
   y2="708.5639"
   gradientTransform="matrix(0,10.5057,-10.5057,0,7681.3027,-226.8316)">&#10;		<stop
   offset="0"
   style="stop-color:#C8C9CA"
   id="stop47" />&#10;		<stop
   offset="7.865170e-002"
   style="stop-color:#C8C9CA"
   id="stop48" />&#10;		<stop
   offset="1"
   style="stop-color:#939494"
   id="stop49" />&#10;	</linearGradient>&#10;	<rect
   x="205.7"
   y="344.20001"
   class="st17"
   width="63.299999"
   height="27.4"
   clip-path="url(#SVGID_41_)"
   id="rect49"
   style="fill:url(#SVGID_42_)" />&#10;</g>&#10;<g
   id="g52"
   transform="translate(-14018,-119316)">&#10;	<defs
   id="defs49"><polygon
     id="SVGID_43_"
     points="267,322.7 270.4,326.9 271.6,326.9 284.8,290.4 281.3,286.3 279,292.6 268.1,322.7 " /></defs>&#10;	<clipPath
   id="SVGID_44_">&#10;		<use
   xlink:href="#SVGID_43_"
   style="overflow:visible"
   id="use49" />&#10;	</clipPath>&#10;	&#10;		<linearGradient
   id="SVGID_45_"
   gradientUnits="userSpaceOnUse"
   x1="48.747398"
   y1="705.34302"
   x2="56.925098"
   y2="705.34302"
   gradientTransform="matrix(0,10.5039,-10.5039,0,7684.6895,-226.7901)">&#10;		<stop
   offset="0"
   style="stop-color:#C8C9CA"
   id="stop50" />&#10;		<stop
   offset="7.865170e-002"
   style="stop-color:#C8C9CA"
   id="stop51" />&#10;		<stop
   offset="1"
   style="stop-color:#939494"
   id="stop52" />&#10;	</linearGradient>&#10;	<rect
   x="267"
   y="286.29999"
   class="st18"
   width="17.799999"
   height="40.599998"
   clip-path="url(#SVGID_44_)"
   id="rect52"
   style="fill:url(#SVGID_45_)" />&#10;</g>&#10;<g
   id="g55"
   transform="translate(-14018,-119316)">&#10;	<defs
   id="defs52"><path
     id="SVGID_46_"
     d="m 221,326.8 c -3.5,12.1 -2.2,22.1 3.9,27 -3,-5.5 -3.2,-13.5 -0.5,-22.8 5,-17.2 18.2,-30.7 29.2,-30.7 3.7,0 6.9,1.3 9.5,3.6 -3,-4.9 -7.4,-7.8 -13,-7.8 -10.9,0 -24.2,13.4 -29.1,30.7" /></defs>&#10;	<clipPath
   id="SVGID_47_">&#10;		<use
   xlink:href="#SVGID_46_"
   style="overflow:visible"
   id="use52" />&#10;	</clipPath>&#10;	&#10;		<linearGradient
   id="SVGID_48_"
   gradientUnits="userSpaceOnUse"
   x1="48.760101"
   y1="708.31158"
   x2="56.937801"
   y2="708.31158"
   gradientTransform="matrix(0,10.5016,-10.5016,0,7678.709,-226.7327)">&#10;		<stop
   offset="0"
   style="stop-color:#C8C9CA"
   id="stop53" />&#10;		<stop
   offset="7.865170e-002"
   style="stop-color:#C8C9CA"
   id="stop54" />&#10;		<stop
   offset="1"
   style="stop-color:#939494"
   id="stop55" />&#10;	</linearGradient>&#10;	<rect
   x="217.39999"
   y="296.10001"
   class="st19"
   width="45.700001"
   height="57.700001"
   clip-path="url(#SVGID_47_)"
   id="rect55"
   style="fill:url(#SVGID_48_)" />&#10;</g>&#10;<g
   id="g58"
   transform="translate(-14018,-119316)">&#10;	<defs
   id="defs55"><path
     id="SVGID_49_"
     d="m 127.5,307.5 c 5.3,8 15.1,12.6 24.3,16.4 6.4,2.6 12.4,5.1 16.4,8.6 -3.2,-5.9 -11.2,-9.2 -19.8,-12.8 -7.5,-3 -15.4,-6.7 -20.9,-12.2 z" /></defs>&#10;	<clipPath
   id="SVGID_50_">&#10;		<use
   xlink:href="#SVGID_49_"
   style="overflow:visible"
   id="use55" />&#10;	</clipPath>&#10;	&#10;		<linearGradient
   id="SVGID_51_"
   gradientUnits="userSpaceOnUse"
   x1="48.757999"
   y1="716.03992"
   x2="56.935699"
   y2="716.03992"
   gradientTransform="matrix(0,10.5,-10.5,0,7666.2109,-226.7076)">&#10;		<stop
   offset="0"
   style="stop-color:#C8C9CA"
   id="stop56" />&#10;		<stop
   offset="7.865170e-002"
   style="stop-color:#C8C9CA"
   id="stop57" />&#10;		<stop
   offset="1"
   style="stop-color:#939494"
   id="stop58" />&#10;	</linearGradient>&#10;	<rect
   x="127.5"
   y="307.5"
   class="st20"
   width="40.700001"
   height="25"
   clip-path="url(#SVGID_50_)"
   id="rect58"
   style="fill:url(#SVGID_51_)" />&#10;</g>&#10;<g
   id="g61"
   transform="translate(-14018,-119316)">&#10;	<defs
   id="defs58"><path
     id="SVGID_52_"
     d="m 114.2,316 0.4,4.1 0.6,4.3 c 1.7,11.2 5.5,19.4 10.9,24.8 -4.7,-6.8 -7.7,-16.4 -8.4,-29 z" /></defs>&#10;	<clipPath
   id="SVGID_53_">&#10;		<use
   xlink:href="#SVGID_52_"
   style="overflow:visible"
   id="use58" />&#10;	</clipPath>&#10;	&#10;		<linearGradient
   id="SVGID_54_"
   gradientUnits="userSpaceOnUse"
   x1="48.776402"
   y1="718.35028"
   x2="56.954102"
   y2="718.35028"
   gradientTransform="matrix(0,10.4948,-10.4948,0,7659.0776,-226.5917)">&#10;		<stop
   offset="0"
   style="stop-color:#C8C9CA"
   id="stop59" />&#10;		<stop
   offset="7.865170e-002"
   style="stop-color:#C8C9CA"
   id="stop60" />&#10;		<stop
   offset="1"
   style="stop-color:#939494"
   id="stop61" />&#10;	</linearGradient>&#10;	<rect
   x="114.2"
   y="316"
   class="st21"
   width="11.8"
   height="33.200001"
   clip-path="url(#SVGID_53_)"
   id="rect61"
   style="fill:url(#SVGID_54_)" />&#10;</g>&#10;<g
   id="g64"
   transform="translate(-14018,-119316)">&#10;	<defs
   id="defs61"><path
     id="SVGID_55_"
     d="m 142.4,275.2 c -0.9,5.6 1.1,9.6 4.8,12.8 -1.3,-2.4 -1.9,-5.2 -1.4,-8.6 1.4,-8.9 11.3,-15.3 22.6,-15.3 8.6,0 15.9,3.3 21.3,8.7 -5.6,-8 -14.1,-12.9 -24.7,-12.9 -11.3,0 -21.2,6.4 -22.6,15.3" /></defs>&#10;	<clipPath
   id="SVGID_56_">&#10;		<use
   xlink:href="#SVGID_55_"
   style="overflow:visible"
   id="use61" />&#10;	</clipPath>&#10;	&#10;		<linearGradient
   id="SVGID_57_"
   gradientUnits="userSpaceOnUse"
   x1="48.7887"
   y1="714.5415"
   x2="56.9664"
   y2="714.5415"
   gradientTransform="matrix(0,10.488,-10.488,0,7659.7656,-226.4581)">&#10;		<stop
   offset="0"
   style="stop-color:#C8C9CA"
   id="stop62" />&#10;		<stop
   offset="7.865170e-002"
   style="stop-color:#C8C9CA"
   id="stop63" />&#10;		<stop
   offset="1"
   style="stop-color:#939494"
   id="stop64" />&#10;	</linearGradient>&#10;	<rect
   x="141.5"
   y="259.89999"
   class="st22"
   width="48.200001"
   height="28.1"
   clip-path="url(#SVGID_56_)"
   id="rect64"
   style="fill:url(#SVGID_57_)" />&#10;</g>&#10;<g
   id="g67"
   transform="translate(-14018,-119316)">&#10;	<defs
   id="defs64"><polygon
     id="SVGID_58_"
     points="200.1,296.2 201.2,296.2 216.2,254.2 212.7,250 197.7,292 196.6,292 " /></defs>&#10;	<clipPath
   id="SVGID_59_">&#10;		<use
   xlink:href="#SVGID_58_"
   style="overflow:visible"
   id="use64" />&#10;	</clipPath>&#10;	&#10;		<linearGradient
   id="SVGID_60_"
   gradientUnits="userSpaceOnUse"
   x1="48.753601"
   y1="711.14728"
   x2="56.931301"
   y2="711.14728"
   gradientTransform="matrix(0,10.5032,-10.5032,0,7675.6787,-226.7687)">&#10;		<stop
   offset="0"
   style="stop-color:#C8C9CA"
   id="stop65" />&#10;		<stop
   offset="7.865170e-002"
   style="stop-color:#C8C9CA"
   id="stop66" />&#10;		<stop
   offset="1"
   style="stop-color:#939494"
   id="stop67" />&#10;	</linearGradient>&#10;	<rect
   x="196.60001"
   y="250"
   class="st23"
   width="19.5"
   height="46.200001"
   clip-path="url(#SVGID_59_)"
   id="rect67"
   style="fill:url(#SVGID_60_)" />&#10;</g>&#10;<g
   id="g70"
   transform="translate(-14018,-119316)">&#10;	<defs
   id="defs67"><path
     id="SVGID_61_"
     d="m 192.2,332.7 c -3.2,19.4 -22.3,34.8 -45.3,34.8 -11.6,0 -24.5,-3.9 -31.9,-9.2 l -19.3,9.3 h -1 l 3.4,4.1 h 1 l 19.3,-9.3 c 7.4,5.4 20.2,9.3 31.9,9.3 23,0 42.1,-15.4 45.3,-34.9 1.8,-10.8 -1.3,-18.1 -6.8,-23.5 3.2,4.9 4.7,11.1 3.4,19.4" /></defs>&#10;	<clipPath
   id="SVGID_62_">&#10;		<use
   xlink:href="#SVGID_61_"
   style="overflow:visible"
   id="use67" />&#10;	</clipPath>&#10;	&#10;		<linearGradient
   id="SVGID_63_"
   gradientUnits="userSpaceOnUse"
   x1="48.7701"
   y1="716.19098"
   x2="56.947899"
   y2="716.19098"
   gradientTransform="matrix(0,10.4981,-10.4981,0,7664.6597,-226.6583)">&#10;		<stop
   offset="0"
   style="stop-color:#C8C9CA"
   id="stop68" />&#10;		<stop
   offset="7.865170e-002"
   style="stop-color:#C8C9CA"
   id="stop69" />&#10;		<stop
   offset="1"
   style="stop-color:#939494"
   id="stop70" />&#10;	</linearGradient>&#10;	<rect
   x="94.599998"
   y="313.39999"
   class="st24"
   width="102.7"
   height="58.299999"
   clip-path="url(#SVGID_62_)"
   id="rect70"
   style="fill:url(#SVGID_63_)" />&#10;</g>&#10;<g
   id="g73"
   transform="translate(-14018,-119316)">&#10;	<defs
   id="defs70"><path
     id="SVGID_64_"
     d="m 482.9,326.3 c 3.8,6.1 11.2,9.7 18.1,12.5 4.3,1.7 8.4,3.4 11.3,5.6 -2,-4.6 -8.1,-7.2 -14.7,-9.8 -5.2,-2.1 -10.7,-4.7 -14.7,-8.3 z" /></defs>&#10;	<clipPath
   id="SVGID_65_">&#10;		<use
   xlink:href="#SVGID_64_"
   style="overflow:visible"
   id="use70" />&#10;	</clipPath>&#10;	&#10;		<linearGradient
   id="SVGID_66_"
   gradientUnits="userSpaceOnUse"
   x1="48.882"
   y1="686.67059"
   x2="57.0597"
   y2="686.67059"
   gradientTransform="matrix(0,10.4612,-10.4612,0,7680.9883,-225.8626)">&#10;		<stop
   offset="0"
   style="stop-color:#C8C9CA"
   id="stop71" />&#10;		<stop
   offset="7.865170e-002"
   style="stop-color:#C8C9CA"
   id="stop72" />&#10;		<stop
   offset="1"
   style="stop-color:#939494"
   id="stop73" />&#10;	</linearGradient>&#10;	<rect
   x="482.89999"
   y="326.29999"
   class="st25"
   width="29.4"
   height="18.1"
   clip-path="url(#SVGID_65_)"
   id="rect73"
   style="fill:url(#SVGID_66_)" />&#10;</g>&#10;<g
   id="g76"
   transform="translate(-14018,-119316)">&#10;	<defs
   id="defs73"><path
     id="SVGID_67_"
     d="m 530.1,344.3 c -2.3,13.5 -16.9,23.2 -33.5,23.2 -8.2,0 -17,-2.5 -22.5,-6 l -13.2,6.1 h -1 l 3.5,4.2 h 1 l 13.1,-6 c 5.4,3.5 14.4,6 22.5,6 16.6,0 31.2,-9.8 33.5,-23.3 1.3,-7.8 -1.3,-13.1 -5.6,-17.2 2.1,3.5 3,7.7 2.2,13" /></defs>&#10;	<clipPath
   id="SVGID_68_">&#10;		<use
   xlink:href="#SVGID_67_"
   style="overflow:visible"
   id="use73" />&#10;	</clipPath>&#10;	&#10;		<linearGradient
   id="SVGID_69_"
   gradientUnits="userSpaceOnUse"
   x1="48.7621"
   y1="686.81927"
   x2="56.939899"
   y2="686.81927"
   gradientTransform="matrix(0,10.4995,-10.4995,0,7708.6079,-226.6933)">&#10;		<stop
   offset="0"
   style="stop-color:#C8C9CA"
   id="stop74" />&#10;		<stop
   offset="7.865170e-002"
   style="stop-color:#C8C9CA"
   id="stop75" />&#10;		<stop
   offset="1"
   style="stop-color:#939494"
   id="stop76" />&#10;	</linearGradient>&#10;	<rect
   x="459.89999"
   y="331.29999"
   class="st26"
   width="74.900002"
   height="40.5"
   clip-path="url(#SVGID_68_)"
   id="rect76"
   style="fill:url(#SVGID_69_)" />&#10;</g>&#10;<g
   id="g79"
   transform="translate(-14018,-119316)">&#10;	<defs
   id="defs76"><polygon
     id="SVGID_70_"
     points="532.5,315.1 535.9,319.2 537.2,319.2 547.5,290.6 544.1,286.4 541.9,292.7 533.8,315.1 " /></defs>&#10;	<clipPath
   id="SVGID_71_">&#10;		<use
   xlink:href="#SVGID_70_"
   style="overflow:visible"
   id="use76" />&#10;	</clipPath>&#10;	&#10;		<linearGradient
   id="SVGID_72_"
   gradientUnits="userSpaceOnUse"
   x1="48.757301"
   y1="683.25128"
   x2="56.935001"
   y2="683.25128"
   gradientTransform="matrix(0,10.4989,-10.4989,0,7713.3784,-226.6898)">&#10;		<stop
   offset="0"
   style="stop-color:#C8C9CA"
   id="stop77" />&#10;		<stop
   offset="7.865170e-002"
   style="stop-color:#C8C9CA"
   id="stop78" />&#10;		<stop
   offset="1"
   style="stop-color:#939494"
   id="stop79" />&#10;	</linearGradient>&#10;	<rect
   x="532.5"
   y="286.39999"
   class="st27"
   width="15"
   height="32.799999"
   clip-path="url(#SVGID_71_)"
   id="rect79"
   style="fill:url(#SVGID_72_)" />&#10;</g>&#10;<g
   id="g82"
   transform="translate(-14018,-119316)">&#10;	<defs
   id="defs79"><path
     id="SVGID_73_"
     d="m 473.8,332 0.3,3.9 0.6,4.1 c 1.4,7 4,12.1 7.8,15.5 -3,-4.6 -4.8,-11 -5.3,-19.4 z" /></defs>&#10;	<clipPath
   id="SVGID_74_">&#10;		<use
   xlink:href="#SVGID_73_"
   style="overflow:visible"
   id="use79" />&#10;	</clipPath>&#10;	&#10;		<linearGradient
   id="SVGID_75_"
   gradientUnits="userSpaceOnUse"
   x1="48.7174"
   y1="688.47498"
   x2="56.8951"
   y2="688.47498"
   gradientTransform="matrix(0,10.514,-10.514,0,7716.7559,-227.008)">&#10;		<stop
   offset="0"
   style="stop-color:#C8C9CA"
   id="stop80" />&#10;		<stop
   offset="7.865170e-002"
   style="stop-color:#C8C9CA"
   id="stop81" />&#10;		<stop
   offset="1"
   style="stop-color:#939494"
   id="stop82" />&#10;	</linearGradient>&#10;	<rect
   x="473.79999"
   y="332"
   class="st28"
   width="8.6999998"
   height="23.6"
   clip-path="url(#SVGID_74_)"
   id="rect82"
   style="fill:url(#SVGID_75_)" />&#10;</g>&#10;<g
   id="g85"
   transform="translate(-14018,-119316)">&#10;	<defs
   id="defs82"><path
     id="SVGID_76_"
     d="m 493.2,303.1 c -0.6,4.1 1.1,7 4,9.3 -0.7,-1.4 -0.9,-3.1 -0.6,-5.1 1,-6.2 8.2,-10.4 16.3,-10.4 6.1,0 11.3,2.2 15.2,5.9 -4,-6.2 -10.5,-10.1 -18.6,-10.1 -8.1,0.1 -15.3,4.2 -16.3,10.4" /></defs>&#10;	<clipPath
   id="SVGID_77_">&#10;		<use
   xlink:href="#SVGID_76_"
   style="overflow:visible"
   id="use82" />&#10;	</clipPath>&#10;	&#10;		<linearGradient
   id="SVGID_78_"
   gradientUnits="userSpaceOnUse"
   x1="48.752102"
   y1="685.73907"
   x2="56.929798"
   y2="685.73907"
   gradientTransform="matrix(0,10.5022,-10.5022,0,7712.1821,-226.755)">&#10;		<stop
   offset="0"
   style="stop-color:#C8C9CA"
   id="stop83" />&#10;		<stop
   offset="7.865170e-002"
   style="stop-color:#C8C9CA"
   id="stop84" />&#10;		<stop
   offset="1"
   style="stop-color:#939494"
   id="stop85" />&#10;	</linearGradient>&#10;	<rect
   x="492.60001"
   y="292.79999"
   class="st29"
   width="35.599998"
   height="19.700001"
   clip-path="url(#SVGID_77_)"
   id="rect85"
   style="fill:url(#SVGID_78_)" />&#10;</g>&#10;<g
   id="g92"
   transform="translate(-14018,-119316)">&#10;	<path
   class="st30"
   d="m 378.8,342.4 16,-44.5 H 415 l 2.2,-6.1 1.5,-4.2 h -15.3 -5 l 3.4,-9.4 2.4,-6.8 H 403 l -44.3,25.2 -0.4,1.4 h 8.8 6.7 l -1.5,4.1 -14.8,41.4 c -2.8,7.8 -0.9,14.7 4.2,19 3.5,3.1 8.6,4.9 14.9,4.9 8.8,0 18.5,-3.4 24.9,-8.4 2.5,-1.9 4.4,-4 5.7,-6.3 l -0.6,-0.9 c -6.4,3 -13.5,4.4 -16.6,4.4 -3.3,0 -6,-0.7 -8,-1.9 -3.8,-2.4 -5.2,-6.6 -3.2,-11.9"
   id="path85" />&#10;	<path
   class="st30"
   d="m 454.6,359 c 2.4,-2 4.3,-4.1 5.4,-6.4 l -0.7,-0.9 c -6,3 -12.7,4.4 -15.6,4.4 -2.5,0 -4.6,-0.5 -6.2,-1.4 -3.8,-2.1 -4.9,-6.5 -2.8,-12.3 l 16,-44.5 h 24.1 l 2.2,-6.1 1.5,-4.2 h -19.1 -4.9 l 3.3,-9.1 2.5,-7.1 H 459 l -38.2,24.1 -1.8,1.1 -0.5,1.4 h 1.4 7 2.9 l -1.5,4.1 -14.8,41.4 c -2.8,7.9 -0.9,15 4.1,19.3 3.3,2.9 8,4.6 13.7,4.6 8.2,-0.1 17.2,-3.5 23.3,-8.4"
   id="path86" />&#10;	<path
   class="st30"
   d="m 302.3,367.6 c 22.1,0 45.3,-18.2 51.8,-40.6 3.2,-11 1.7,-21 -3.2,-28.3 -5,-7.5 -13.9,-12.3 -25.1,-12.3 -22.1,0 -45.3,18.2 -51.8,40.6 -3.8,13.3 -1,25.1 6.6,32.5 5.2,5.1 12.7,8.1 21.7,8.1 M 296.2,327 c 5.9,-17.1 15.8,-30.9 28.6,-30.9 5,0 8.1,2.1 9.6,5.7 2.4,5.6 1.2,14.8 -2.4,25.1 -5.9,17.1 -15.8,30.9 -28.6,30.9 -2.5,0 -4.6,-0.6 -6.2,-1.6 -6.5,-4 -5.8,-15.6 -1,-29.2"
   id="path87" />&#10;	<path
   class="st30"
   d="m 281.3,286.3 h -1 l -13.8,6.3 c -4.8,-4.1 -10.1,-6.4 -17.5,-6.4 -20.6,0 -42.7,17.3 -49.8,40.8 -4,13.3 -1,25 6.5,32.4 5.2,5 12.5,8 21,8 10.5,0 22.1,-5 30.2,-12 3.8,-3.4 6.9,-7.2 8.7,-11.1 l -0.8,-0.7 C 256,350.7 244,357 235.3,357 c -4.3,0 -7.8,-1.2 -10.4,-3.2 -6.1,-4.9 -7.4,-14.9 -3.9,-27 5,-17.2 18.2,-30.7 29.2,-30.7 5.6,0 10,2.9 13,7.8 2.8,4.7 4.2,11.3 3.8,18.9 h 1.2 l 1.8,-5 9.1,-25.1 z"
   id="path88" />&#10;	<path
   class="st30"
   d="m 142.4,275.2 c 1.4,-8.9 11.3,-15.3 22.6,-15.3 10.6,0 19.1,5 24.7,12.9 3.7,5.3 6.1,11.9 6.9,19.3 h 1.1 l 1.1,-2.9 11.7,-32.8 2.3,-6.3 h -1 l -17.6,8.1 c -7.6,-5.2 -17.7,-8.3 -28.4,-8.3 -23,0 -42.1,15.7 -45.2,34.2 -1.8,10.5 1.4,17.9 7,23.5 5.6,5.5 13.4,9.2 20.9,12.3 8.6,3.5 16.7,6.9 19.8,12.8 1.3,2.4 1.8,5.2 1.2,8.6 -1.6,8.9 -11.1,16.4 -22.4,16.4 -8.3,0 -15.5,-2.7 -21,-8.4 -5.4,-5.5 -9.2,-13.7 -10.9,-24.8 -0.4,-2.6 -0.8,-5.4 -0.9,-8.4 h -1.1 l -18.6,51.6 h 1 l 4.8,-2.3 14.5,-7 c 7.4,5.3 20.3,9.2 31.9,9.2 23,0 42.1,-15.4 45.3,-34.8 1.4,-8.3 -0.1,-14.5 -3.3,-19.3 -5.9,-8.8 -17.2,-13.2 -27.3,-17.5 -5.5,-2.4 -10.7,-4.8 -14.3,-7.9 -3.6,-3.3 -5.7,-7.3 -4.8,-12.9"
   id="path89" />&#10;	<path
   class="st30"
   d="m 493.2,303.1 c 1,-6.2 8.2,-10.4 16.4,-10.4 8.2,0 14.6,3.9 18.6,10.1 2.2,3.4 3.7,7.6 4.3,12.2 h 1.3 l 0.7,-2.1 7.3,-20.3 2.2,-6.3 h -1 l -11.9,5.4 c -6.1,-3.8 -13.9,-6 -21.2,-6 -16.7,0 -30.4,10.6 -32.7,23.5 -1.3,7.6 1.3,12.9 5.6,17 4,3.7 9.5,6.3 14.7,8.3 6.6,2.6 12.7,5.2 14.7,9.8 0.7,1.5 0.9,3.3 0.5,5.3 -1.1,6.2 -7.9,11 -16.1,11 -5.7,0 -10.5,-1.7 -14.2,-5.1 -3.7,-3.4 -6.3,-8.5 -7.8,-15.5 -0.5,-2.4 -0.8,-5.1 -1,-8 h -1.1 l -12.7,35.6 h 1 l 4.7,-2.1 8.5,-3.9 c 5.4,3.5 14.3,6 22.5,6 16.6,0 31.2,-9.7 33.5,-23.2 0.9,-5.4 -0.1,-9.6 -2.2,-13 -4.3,-7 -13.2,-10.6 -20.8,-13.8 -3.8,-1.5 -7.3,-3.1 -9.8,-5.1 -2.9,-2.3 -4.6,-5.2 -4,-9.4"
   id="path90" />&#10;	<path
   class="st30"
   d="m 552.5,346.6 c -5.8,0 -10.6,4.5 -10.6,10.5 0,6.1 4.8,10.5 10.6,10.5 5.7,0 10.6,-4.4 10.6,-10.5 0,-6 -4.9,-10.5 -10.6,-10.5 m 0,19.2 c -5,0 -8.9,-3.9 -8.9,-8.7 0,-4.9 3.9,-8.7 8.9,-8.7 4.9,0 8.8,3.8 8.8,8.7 0,4.9 -3.9,8.7 -8.8,8.7"
   id="path91" />&#10;	<path
   class="st30"
   d="m 557.3,354.5 c 0,-2.4 -1.4,-3.4 -4.3,-3.4 h -4.6 v 12.1 h 1.8 v -5.3 h 2.1 l 3.2,5.3 h 2 l -3.4,-5.3 c 1.8,-0.3 3.2,-1.3 3.2,-3.4 m -7.1,1.9 v -3.7 h 2.5 c 1.3,0 2.7,0.3 2.7,1.8 0,1.9 -1.4,2 -3,2 h -2.2 z"
   id="path92" />&#10;</g>&#10;</svg>
