<?xml version="1.0" encoding="utf-8"?>
<!-- Generator: Adobe Illustrator 19.2.1, SVG Export Plug-In . SVG Version: 6.00 Build 0)  -->
<svg version="1.1" id="layer" xmlns="http://www.w3.org/2000/svg" xmlns:xlink="http://www.w3.org/1999/xlink" x="0px" y="0px"
	 viewBox="0 0 652 652" style="enable-background:new 0 0 652 652;" xml:space="preserve">
<style type="text/css">
	.st0{fill:#2FB457;}
</style>
<polygon points="175.5,337.5 195.3,337.5 195.3,287.1 195.5,287.1 223.5,337.5 245.1,337.5 245.1,256.7 225.3,256.7 225.3,306.5 
	225.1,306.5 197.1,256.7 175.5,256.7 "/>
<g>
	<path d="M312.6,278.7h-19.2v31.5c0,10.4-6.3,13.1-10.5,13.1c-6.1,0-9.5-2.7-9.5-10.5v-34.1h-19.2V314c0,15.4,4.9,25.1,21.7,25.1
		c6.8,0,14.3-3.7,17.9-9.7h0.2v8h18.7V278.7z"/>
	<path d="M360.9,278.7H349V261h-19.2v17.8H320v12.4h9.7v26.1c0,16,4.2,20.7,20.6,20.7c3.5,0,7-0.5,10.5-0.6v-14.1
		c-1.7,0-3.4,0.2-5,0.2c-4.2,0-6.9-1-6.9-5.7v-26.7h11.9V278.7z"/>
	<path d="M367.9,337.5h19.2v-29.1c0-7.4,5-13.9,14.5-13.9c2.6,0,4.9,0.5,7.4,1.1v-17.5c-1.5-0.3-3.1-0.5-4.5-0.5
		c-8.3,0-14.8,4-17.7,11.4h-0.2v-10.3h-18.7V337.5z"/>
	<path d="M472.8,312.8c0.9-19.9-9.6-35.7-30.7-35.7c-17.3,0-31.7,12.9-31.7,30.9c0,19.7,13,31.2,32.1,31.2
		c13.1,0,25.7-5.9,29.2-19.5h-18c-1.8,4.3-6.3,6.4-11,6.4c-8.1,0-12.8-5.3-13.1-13.3H472.8z M429.7,302c1.1-7.1,5.7-12,12.4-12
		c6.4,0,11.1,5.4,11.4,12H429.7z"/>
	<path d="M479,337.5h19.2v-32c0-6.4,3.2-12.6,10.4-12.6c10.5,0,9.6,8.1,9.6,16.2v28.4h19.2v-37.7c0-8.5-1.6-22.7-21.2-22.7
		c-7,0-14.9,3.7-18.4,9.7h-0.2v-8H479V337.5z"/>
	<path d="M564.1,296.8c0.9-5,4.3-7.4,9.6-7.4c4,0,9.3,1.7,9.3,6.1c0,3.6-1.8,4.8-5.1,5.4c-13.4,2.7-34.2,1.2-34.2,20.4
		c0,12.1,8.8,17.8,20,17.8c7,0,14.4-2,19.4-7.2c0.2,1.9,0.5,3.7,1.1,5.5h19.3c-2.3-4.6-2.3-10.1-2.3-15v-25.7
		c0-16.6-13.5-19.7-27.4-19.7c-6.7,0-13.5,1.1-18.7,4.1c-5.2,3.1-8.8,8-9.2,15.7H564.1z M563,320.6c0-4.6,3.6-6.4,7.9-7.5
		c4.2-1.1,9.2-1.5,11.9-3.2c0.5,12.1-2.6,17.3-11.8,17.3C566.7,327.3,563,325.4,563,320.6"/>
	<path d="M613.2,278.1c-0.3-0.1-0.8-0.2-1.4-0.2h-0.6v2.7h0.9c0.6,0,1-0.1,1.3-0.3c0.3-0.2,0.5-0.6,0.5-1.1
		C613.9,278.6,613.7,278.3,613.2,278.1 M608.8,285.6v-9.3c0.6,0,1.4,0,2.6,0c1.1,0,1.8,0,1.9,0c0.7,0.1,1.3,0.2,1.8,0.5
		c0.8,0.5,1.2,1.2,1.2,2.2c0,0.8-0.2,1.3-0.6,1.7c-0.4,0.3-1,0.6-1.6,0.6c0.6,0.1,1,0.3,1.3,0.5c0.5,0.4,0.8,1.1,0.8,2.1v0.8
		c0,0.1,0,0.2,0,0.3c0,0.1,0,0.2,0.1,0.3l0.1,0.3h-2.3c-0.1-0.3-0.1-0.7-0.2-1.3c0-0.6-0.1-0.9-0.1-1.1c-0.1-0.3-0.3-0.6-0.7-0.7
		c-0.2-0.1-0.5-0.1-0.8-0.1l-0.5,0h-0.5v3.3H608.8z M607.6,276.1c-1.3,1.4-2,3-2,4.8c0,1.9,0.7,3.6,2,4.9c1.3,1.4,3,2,4.9,2
		c1.9,0,3.5-0.7,4.9-2c1.3-1.4,2-3,2-4.9c0-1.9-0.7-3.5-2-4.8c-1.4-1.4-3-2.1-4.9-2.1C610.5,274,608.9,274.7,607.6,276.1
		 M618.3,286.9c-1.6,1.6-3.6,2.4-5.9,2.4c-2.4,0-4.3-0.8-6-2.4c-1.6-1.6-2.4-3.6-2.4-6c0-2.4,0.9-4.5,2.6-6.1
		c1.6-1.5,3.6-2.3,5.8-2.3c2.3,0,4.3,0.8,5.9,2.5c1.6,1.6,2.5,3.6,2.5,5.9C620.8,283.3,620,285.3,618.3,286.9"/>
	<path class="st0" d="M52.9,236.8c18,16.5,39.5,23.1,61.1,38.9c51.6,37.6,23.1,84.1,23.1,84.1c3.7-18-2.2-47.7-51.4-69.9l-2.5-1.1
		l16.3-3.5l-17.9-1.9l13.9-11.2l-17.4,6.6l8.3-17.7l-12.8,14.8l-0.9-19.1l-4.6,17.4l-9.4-14.8l3.4,16
		C42.3,257.4,51.7,240.4,52.9,236.8"/>
	<path d="M131.8,365.2c-16.5-19.5-33.2-25.4-79.1-39.7C13.3,313.1,13.4,260,38,243.6c0,0-13.6,30.7,25.9,44.8
		C103.4,302.6,145.9,333.8,131.8,365.2"/>
	<path class="st0" d="M52.9,236.8c18,16.5,39.5,23.1,61.1,38.9c51.6,37.6,23.1,84.1,23.1,84.1c3.7-18-2.2-47.7-51.4-69.9l-2.5-1.1
		l16.3-3.5l-17.9-1.9l13.9-11.2l-17.4,6.6l8.3-17.7l-12.8,14.8l-0.9-19.1l-4.6,17.4l-9.4-14.8l3.4,16
		C42.3,257.4,51.7,240.4,52.9,236.8"/>
	<path d="M131.8,365.2c-16.5-19.5-33.2-25.4-79.1-39.7C13.3,313.1,13.4,260,38,243.6c0,0-13.6,30.7,25.9,44.8
		C103.4,302.6,145.9,333.8,131.8,365.2"/>
	<polygon points="178.9,374.5 174.4,374.5 174.4,371.8 187.8,371.8 187.8,374.5 182.2,374.5 190.6,400.9 198.7,377.6 197.7,374.5 
		193,374.5 193,371.8 206.4,371.8 206.4,374.5 200.8,374.5 209.9,400.8 218.2,374.5 212.6,374.5 212.6,371.8 226.1,371.8 
		226.1,374.5 221.4,374.5 211.5,405.2 208.4,405.2 200.3,381.9 191.9,405.2 188.9,405.2 	"/>
	<path d="M226.1,402.6h3.8V369h-3.8v-2.6h7v19.1c2.6-2.5,5.9-4.2,9.3-4.2c4.2,0,6.8,2.6,6.8,7.6v13.7h3.5v2.6h-10.3v-2.6h3.6v-13.3
		c0-3.1-1.2-5.3-4.4-5.3c-3.2,0-6.2,2-8.4,4.1v14.5h3.6v2.6h-10.6V402.6z"/>
	<path d="M254.9,399c0-5.9,5.9-7.1,10.5-7.1h5.2v-2.2c0-4.2-1.6-5.7-5.9-5.7c-2.9,0-5.9,0.7-8,1.5v-2.6c2.4-0.9,5.5-1.6,8.5-1.6
		c5.8,0,8.5,2.5,8.5,8.1v13.2h3.6v2.6h-6.7v-3c-1.9,1.6-4.9,3.6-8.6,3.6C258.3,405.8,254.9,403.6,254.9,399 M270.7,399.7v-5.5h-5.2
		c-3.5,0-7.4,0.8-7.4,4.8c0,2.7,1.9,4.3,4.8,4.3C266.1,403.3,268.9,401.4,270.7,399.7"/>
	<path d="M281.5,399.1v-14.5h-4.1v-2.6h4.1v-6h3.2v6h7.5v2.6h-7.5V399c0,3,1.3,4.3,4.2,4.3c1.4,0,2.7-0.3,3.6-0.6v2.5
		c-1.4,0.5-2.6,0.7-4.3,0.7C285.5,405.8,281.5,405,281.5,399.1"/>
	<path d="M300.3,373c0,2.4-1.9,6-4.3,8.3l-1.4-1.2c1.6-1.9,2.5-3.8,2.7-5.4c-1.1-0.2-1.9-1-1.9-2.1c0-1.3,1-2.4,2.5-2.4
		C299.4,370.2,300.3,371.4,300.3,373"/>
	<path d="M298.4,404.4v-5.7h2.7v3.7c1.6,0.4,3.8,0.8,5.7,0.8c3.3,0,6-1.1,6-3.8c0-6-14-3.1-14-11.7c0-3.9,3-6.5,8.6-6.5
		c2.6,0,5.5,0.6,7.5,1.2v5.7h-2.7v-3.8c-1.3-0.3-3.2-0.6-4.7-0.6c-3.6,0-5.5,1.5-5.5,3.7c0,6.1,14,3,14,11.7c0,4.1-3.3,6.5-9,6.5
		C304,405.8,300.8,405.2,298.4,404.4"/>
	<path d="M332.2,402.6h4v-18h-4v-2.6h7.2v20.7h3.3v2.6h-10.5V402.6z M337.4,370.9c1.4,0,2.6,1.2,2.6,2.5c0,1.4-1.2,2.6-2.6,2.6
		c-1.4,0-2.5-1.2-2.5-2.6C334.9,372,336,370.9,337.4,370.9"/>
	<path d="M397,402.6h4v-18h-4v-2.6h7.2v20.7h3.3v2.6H397V402.6z M402.2,370.9c1.4,0,2.6,1.2,2.6,2.5c0,1.4-1.2,2.6-2.6,2.6
		c-1.4,0-2.5-1.2-2.5-2.6C399.7,372,400.8,370.9,402.2,370.9"/>
	<path d="M345.8,402.6h3.5v-18.1h-3.5v-2.6h6.7v3.6c2.7-2.5,5.9-4.2,9.3-4.2c4.2,0,6.8,2.6,6.8,7.6v13.7h3.7v2.6h-10.5v-2.6h3.7
		v-13.3c0-3.1-1.1-5.3-4.4-5.3c-3.2,0-6.2,2-8.4,4.1v14.5h3.8v2.6h-10.5V402.6z"/>
	<path d="M547.7,402.6h3.5v-18.1h-3.5v-2.6h6.7v3.6c2.7-2.5,5.9-4.2,9.3-4.2c4.2,0,6.8,2.6,6.8,7.6v13.7h3.7v2.6h-10.5v-2.6h3.7
		v-13.3c0-3.1-1.1-5.3-4.4-5.3c-3.2,0-6.2,2-8.4,4.1v14.5h3.8v2.6h-10.5V402.6z"/>
	<path d="M375.5,404.4v-5.7h2.7v3.7c1.6,0.4,3.8,0.8,5.7,0.8c3.3,0,6-1.1,6-3.8c0-6-14-3.1-14-11.7c0-3.9,3-6.5,8.6-6.5
		c2.6,0,5.5,0.6,7.5,1.2v5.7h-2.7v-3.8c-1.3-0.3-3.2-0.6-4.7-0.6c-3.6,0-5.5,1.5-5.5,3.7c0,6.1,14,3,14,11.7c0,4.1-3.3,6.5-9,6.5
		C381.1,405.8,377.9,405.2,375.5,404.4"/>
	<path d="M409.6,393.6c0-6.8,3.8-12.2,10.5-12.2c3.4,0,5.8,1.4,7.6,3.2V369h-5.1v-2.6h8.2v36.2h4.4v2.6h-7.4v-3.3
		c-1.9,2.2-4.6,3.9-8.2,3.9C413.1,405.8,409.6,400.2,409.6,393.6 M427.7,399.5v-12.3c-1.6-1.6-3.9-3.2-7-3.2c-5.3,0-7.9,4.2-7.9,9.6
		c0,5,2.3,9.7,7.5,9.7C423.6,403.2,425.9,401.3,427.7,399.5"/>
	<path d="M436.3,393.7c0-7.4,4.2-12.3,10.8-12.3c7.2,0,10,6.1,10,11.5c0,0.4,0,1-0.1,1.5h-17.5c0.2,5.5,3.3,8.9,8.6,8.9
		c2.9,0,5.6-1,7.8-2.4v2.7c-2,1.2-4.7,2.2-8.1,2.2C440.4,405.8,436.3,400.9,436.3,393.7 M439.6,391.9H454c-0.2-4-2.1-8.1-7-8.1
		C442.6,383.9,440,387.2,439.6,391.9"/>
	<path d="M471.4,393.6c0-7.6,4.6-12.3,11.9-12.3c3,0,6,0.8,8,1.6v6.6h-2.7v-4.8c-1.3-0.4-3.2-0.8-5-0.8c-5.9,0-8.8,3.9-8.8,9.5
		c0,5.9,3.3,9.7,8.8,9.7c2.8,0,5.5-0.9,7.8-2.4v2.7c-2.2,1.4-4.9,2.3-8.1,2.3C475.9,405.8,471.4,401.1,471.4,393.6"/>
	<path d="M494.4,393.6c0-7.6,4.8-12.2,11.4-12.2c6.7,0,11.5,4.6,11.5,12.2c0,7.7-4.8,12.2-11.5,12.2
		C499.1,405.8,494.4,401.3,494.4,393.6 M513.9,393.6c0-5.9-3.1-9.6-8.2-9.6c-5.1,0-8.2,3.7-8.2,9.6c0,5.9,3.1,9.7,8.2,9.7
		C510.9,403.2,513.9,399.4,513.9,393.6"/>
	<path d="M522.1,398.3v-13.7h-4.1v-2.6h7.2v15.9c0,3.2,1.1,5.3,4.4,5.3c3.2,0,6.2-2,8.5-4.1v-14.5h-4v-2.6h7.1v20.7h4.4v2.6h-7.5
		v-3.5c-2.7,2.4-6,4.1-9.3,4.1C524.8,405.8,522.1,403.3,522.1,398.3"/>
	<path d="M578.1,399.1v-14.5H574v-2.6h4.1v-6h3.2v6h7.5v2.6h-7.5V399c0,3,1.3,4.3,4.2,4.3c1.4,0,2.7-0.3,3.6-0.6v2.5
		c-1.4,0.5-2.6,0.7-4.3,0.7C582.1,405.8,578.1,405,578.1,399.1"/>
	<path d="M592.3,404.4v-5.7h2.7v3.7c1.6,0.4,3.8,0.8,5.7,0.8c3.3,0,6-1.1,6-3.8c0-6-14-3.1-14-11.7c0-3.9,3-6.5,8.6-6.5
		c2.6,0,5.5,0.6,7.5,1.2v5.7H606v-3.8c-1.3-0.3-3.2-0.6-4.7-0.6c-3.6,0-5.5,1.5-5.5,3.7c0,6.1,14,3,14,11.7c0,4.1-3.3,6.5-9,6.5
		C597.9,405.8,594.7,405.2,592.3,404.4"/>
	<path d="M612.9,403.3c0-1.3,1.1-2.4,2.4-2.4c1.3,0,2.4,1.1,2.4,2.4c0,1.4-1.1,2.5-2.4,2.5C614,405.7,612.9,404.6,612.9,403.3"/>
	<polygon points="612.2,386.3 612.8,386.3 612.8,383.1 611.8,383.1 611.8,383.8 611.3,383.8 611.3,382.6 615,382.6 615,383.8 
		614.4,383.8 614.4,383.1 613.4,383.1 613.4,386.3 614.1,386.3 614.1,386.8 612.2,386.8 	"/>
	<polygon points="615.4,386.3 615.9,386.3 616,383.1 615.5,383.1 615.5,382.6 617,382.6 618.2,385.7 619.4,382.6 620.9,382.6 
		620.9,383.1 620.3,383.1 620.5,386.3 621,386.3 621,386.8 619.3,386.8 619.3,386.3 619.9,386.3 619.8,383.2 618.4,386.5 618,386.5 
		616.6,383.2 616.5,386.3 617.1,386.3 617.1,386.8 615.4,386.8 	"/>
</g>
</svg>
