<?xml version="1.0" encoding="utf-8"?>
<!-- Generator: Adobe Illustrator 19.2.1, SVG Export Plug-In . SVG Version: 6.00 Build 0)  -->
<svg version="1.1" id="layer" xmlns="http://www.w3.org/2000/svg" xmlns:xlink="http://www.w3.org/1999/xlink" x="0px" y="0px"
	 viewBox="0 0 652 652" style="enable-background:new 0 0 652 652;" xml:space="preserve">
<style type="text/css">
	.st0{fill:#EE7C1C;}
</style>
<g>
	<path class="st0" d="M604.8,346.1H25c0,0,525.6,25.1,579.8,46.1V346.1z"/>
	<path class="st0" d="M365.5,261c6.7-0.3,10.7,0.2,16,1.7c12,3.5,21.4,13.1,21.4,26.7c-4.5,0-6.8,0-11.3,0c-2.3,0-7.2,0-9.7-0.1
		c-1.4-0.1-1.1-1.1-2.7-3.6c-2.8-4.2-8.8-6.7-13.4-4c-10.3,6-11.8,27.2-1.6,34.1c2.4,1.6,5,1.8,8.3,1.8c3.5-0.4,7.4-3.2,7.4-6.1
		h-6.8v-12.2c0-1.5,0-3.2,0-4.8c0,0,3.8,0,3.8,0h26.5c0,12.9,0,25.5,0,38.4h-15.1c0-0.8,0-2.7-0.3-3.8c-3.1,1.8-6.7,2.9-10.1,3.9
		c-9.3,2.7-21.3,1-28.8-3.5c-18.7-11.3-20.2-43.9-4.5-58.7c4.5-4.3,9-6.9,14.8-8.6C361.1,261.7,363.3,261.1,365.5,261"/>
</g>
<g>
	<path class="st0" d="M539.9,262.7c4.7,0,11.4,0,15.8,0c1.7,0,4.3-0.1,5.7,0.5c0.1,0.1,0.2,0.1,0.3,0.2c2.7,2.5,4,6.5,6.1,9.4
		c5.2,8.4,10.1,16.1,15.3,24.5c0.2,0.3,0.8,1,0.9,1.4c0.2,0.2,0.2,0.3,0.5,0.3c0-11.1,0-22.1,0-33.2c0-0.8-0.2-3.2,0.6-3.2
		c3-0.1,5.8-0.1,7.8-0.1c3.7,0,4.5,0.1,8.1,0.1c1.3-0.1,3.7,0.1,5,0v70.2c-5.3,0-10.5,0-15.8,0c-1.8,0-4.4,0.4-5.9-0.4
		c-1.2-0.7-4.4-6.4-5.2-7.9c-5.6-9-11-17.6-16.6-26.7c0-0.1-0.3-0.5-0.5-0.7c-0.2-0.2-0.3-0.5-0.5-0.6c0,11.9,0.1,24.4,0.1,36.3H540
		v-50.6V269C540,266.8,539.9,264.6,539.9,262.7"/>
	<polygon class="st0" points="92.8,262.9 148.5,262.9 148.5,279.6 115.3,279.6 115.3,289 143,289 143,306 115,306 115,315.7 
		149.5,315.7 149.5,332.8 92.8,332.8 	"/>
	<path class="st0" d="M152.7,262.9h26.1c0.6,0,3,0,3.1,1c0.8,2.8,1.3,4.9,2.1,7.7c1.7,6.9,3.5,13.7,5.2,20.6c0.9,3.7,1.8,7.3,2.8,11
		h0.6c0.3-3.5,1.6-6.8,2.4-10c1.7-6.8,3.4-13.5,5.2-20.3c0.6-2.4,1.4-7.6,2.7-9.3c0.1-0.1,0.1-0.1,0.2-0.2c1.6-0.4,5.3-0.4,7.5-0.4
		h21.9v69.9h-20.9v-37.1H211c-3.7,12.4-7.3,24.7-11,37.1c-2.5,0-14.2,0.4-15.4-0.5c-1.1-0.9-1.7-4.8-2.2-6.3
		c-1.9-6.5-3.8-13-5.8-19.6c-1-3.6-2-7.1-3.1-10.7H173v37.1h-20.3V262.9z"/>
	<rect x="237.1" y="262.9" class="st0" width="22.9" height="69.9"/>
	<polygon class="st0" points="403.7,262.9 465.3,262.9 465.3,282.9 445.9,282.9 445.9,332.8 423.1,332.8 423.1,282.9 403.7,282.9 	
		"/>
	<path class="st0" d="M496.9,261.4c7,0,12.3,0.3,18,2.5c5.5,2.1,10.9,6.2,14.7,11.1c17.8,23.1,3.8,55.6-24.3,59.3
		c-7.1,0.9-14.6-0.4-20-3.3c-4.1-2.2-8.1-4.7-11.4-8.3c-13.1-14.3-12.5-36.8,1-50.7c4.3-4.5,9.9-7.7,15.7-9.4
		C492.5,262.2,494.7,261.7,496.9,261.4 M497.8,279c-2.8,0.9-4.6,1.9-6.2,4.3c-4.6,7-4.9,25.6,1.8,31.3c2.6,2.2,6.1,2.4,9.9,2.4
		c2.6-0.6,4.8-1.6,6.5-4c4.9-7.1,5.4-26.1-1.8-31.9C505.3,278.9,501.9,278.6,497.8,279"/>
	<path class="st0" d="M25.1,262.9h25.5c5.7,0,11.4,0.1,17,0.1c11,1.6,20.1,9,20.1,21.1c0,6.6-3,11.8-8.5,14.8v0.3
		c-0.2,0.2-0.3,0.2-0.3,0.6c9.4,2.6,8.1,12.2,8.1,21.3c0,1.9-0.2,4.1,0.4,5.8c0.3,0.8,1.1,2.3,2.2,2.3v3.5c-3.6,0-20.5,0.6-22-0.9
		c-1.7-1.7-1.7-5.3-1.8-7.9c-0.1-3,0.4-6.5-0.3-9.3c-1.7-7-11.7-5.5-18.1-5.5v23.5H25.1V262.9z M47.3,279.9v13.2h11.9
		c1.2-0.8,2.8-0.9,4-1.9c4.3-3.8,1.8-9.8-3.1-11.1C57,279.3,50.9,279.9,47.3,279.9"/>
	<path class="st0" d="M613.9,269.5c0-2.9,2.2-5.1,5-5.1c2.8,0,4.9,2.2,4.9,5.1c0,2.9-2.2,5.1-4.9,5.1
		C616.1,274.6,613.9,272.4,613.9,269.5 M618.9,275.6c3.3,0,6.2-2.6,6.2-6.1c0-3.5-2.8-6.1-6.2-6.1c-3.3,0-6.2,2.6-6.2,6.1
		C612.7,273,615.5,275.6,618.9,275.6 M617.6,270h1.2l1.8,3h1.2l-2-3.1c1-0.1,1.8-0.7,1.8-1.9c0-1.4-0.8-2-2.5-2h-2.7v7h1.1V270z
		 M617.6,269.1v-2.2h1.4c0.7,0,1.5,0.2,1.5,1c0,1.1-0.8,1.1-1.7,1.1H617.6z"/>
	<path class="st0" d="M264,263.2c4.7,0,11.4,0,15.8,0c1.7,0,4.3-0.1,5.7,0.5c0.1,0.1,0.2,0.1,0.3,0.2c2.7,2.5,4,6.5,6.1,9.4
		c5.2,8.4,10.1,16.1,15.3,24.5c0.2,0.3,0.8,1,0.9,1.4c0.2,0.2,0.2,0.3,0.5,0.3c0-11.1,0-22.1,0-33.2c0-0.8-0.2-3.2,0.6-3.2
		c3-0.1,5.8-0.1,7.8-0.1c3.7,0,4.5,0.1,8.1,0.1c1.3-0.1,3.7,0.1,5,0v70.2c-5.3,0-10.5,0-15.8,0c-1.8,0-4.4,0.4-5.9-0.4
		c-1.2-0.7-4.4-6.4-5.2-7.9c-5.6-9-11-17.6-16.6-26.7c0-0.1-0.3-0.5-0.5-0.7c-0.2-0.2-0.3-0.5-0.5-0.6c0,11.9,0.1,24.4,0.1,36.3H264
		v-50.6v-13.2C264,267.3,263.9,265,264,263.2"/>
</g>
</svg>
