<?xml version="1.0" encoding="utf-8"?>
<!-- Generator: Adobe Illustrator 19.2.1, SVG Export Plug-In . SVG Version: 6.00 Build 0)  -->
<svg version="1.1" id="layer" xmlns="http://www.w3.org/2000/svg" xmlns:xlink="http://www.w3.org/1999/xlink" x="0px" y="0px"
	 viewBox="0 0 652 652" style="enable-background:new 0 0 652 652;" xml:space="preserve">
<style type="text/css">
	.st0{fill:#D3003B;}
	.st1{fill:#FFFFFF;}
</style>
<g>
	<path class="st0" d="M592.3,278.5c0.2,0.1,0.4,0.2,0.6,0.2c0.2,0,0.5,0,0.7-0.1c0.3-0.2,0.5-0.6,0.5-1.3c0-1-0.5-1.6-1.4-1.6
		c-0.2,0-0.3,0-0.4,0.1V278.5z M592.3,279.1v0.7c0,1.5,0.1,1.6,0.1,1.7c0.1,0.1,0.2,0.1,0.6,0.1c0.1,0,0.1,0,0.2,0.1
		c0,0.1-0.1,0.1-0.2,0.1h-0.3c-0.1,0-0.6,0-1.1,0c-0.4,0-0.9,0-1,0h-0.3c-0.1,0-0.1,0-0.1-0.1c0-0.1,0.1-0.1,0.2-0.1
		c0.5,0,0.6,0,0.7-0.5c0-0.3,0-0.8,0-1.8v-1.5c0-1,0-1.5,0-1.8c0-0.4-0.2-0.5-0.7-0.5c-0.1,0-0.1,0-0.1-0.1c0-0.1,0.1-0.1,0.2-0.1
		h0.3c0.1,0,0.6,0,1.1,0c0.3,0,0.6,0,1.1,0c1.2,0,1.6,0.2,1.9,0.4c0.3,0.2,0.6,0.6,0.6,1.2c0,0.6-0.2,1.1-1.2,2
		c0.8,0.9,1.5,1.8,1.9,2.3c0.3,0.3,0.5,0.5,0.7,0.5c0.1,0,0.2,0.1,0.2,0.1c0,0.1,0,0.1-0.2,0.1h-0.4c-0.4,0-0.8,0-1.1-0.2
		c-0.4-0.2-0.7-0.6-1.2-1.3c-0.4-0.5-0.7-1-0.9-1.3H592.3z M593.2,283.8c2.9,0,5.1-2.3,5.1-5.3c0-2.8-2.2-5.3-5.1-5.3
		c-2.9,0-5.1,2.3-5.1,5.3C588.1,281.5,590.4,283.8,593.2,283.8 M587.1,278.6c0-3.3,2.7-6,6.1-6c3.5,0,6,2.6,6,6c0,3.3-2.7,6-6,6
		C589.7,284.6,587.1,282,587.1,278.6"/>
	<path class="st0" d="M74.8,343l0-9.5c0.8-0.1,6-0.1,7.7,0.9c1.3,0.8,2.1,2.4,2.1,3.4c0,4.1-3,5.2-6.6,5.2L74.8,343z M91.4,264.3
		c-4.8-3.1-8.8-4.1-4.9-3.8c16.2,1.4,26.6,15.2,28.6,17.6c8.7,10.8,7.8,28.1,7.4,31.4c-0.4,3.3-1.8,8.5-3.3,11.9
		c-0.4,0.8-1.5,2.8-1.1,2.4c11.9-11.3,11.2-24.8,8.6-34.3c-0.6-2.2-1.6-4.9-1.2-4.3c-0.4-0.7,1.8,1.7,2.6,2.9
		c16.1,24.4,1.1,46.8-10.6,53.5c-1.3,0.7-3.4,1.8-3.6,2.1c-0.2,0.3-0.2,0.5,3.8-0.6c5.8-1.7,10.2-4.4,13.9-8.9
		c2.4-3,3.1-6.2,3.1-4.9c0,0.6-0.9,4.4-1.4,6.3c-2,7.3-6.7,14.1-12.3,17.7c-2,1.3-4.1,2-6.6,2.8c-2.6,0.8-6.3,1.4-8.8,1
		c-1.1-0.2,0.3,1.6,0.6,1.9c2.5,2.4,6.4,4.7,11.5,3.5c1-0.2-1.1,1.3-1.8,1.8c-1.8,1.5-4,2.6-6.4,3.5c-4.2,1.7-10.9,2.2-15.8,0.7
		c-2.2-0.7-3.8-1.7-4.9-2.3c-0.5-0.2-1-0.6-1.3-0.6c-0.3-0.1-0.7,3.5-1.1,5.4c-1,4.2-2.9,8-5.1,11c-0.3,0.4-1.3,1.9-1.7,2
		c-0.6,0.1-3-3-3.4-3.5c-1.8-2.2-3.4-4.9-4.7-7.6c-0.7-1.6-1.9-4.7-2.3-4.7c-0.4,0.1-2.7,1.8-4,2.4c-4.5,2-13.9,2.5-22.9-4.5
		c-1.3-1-3.2-3.2-2.6-2.9c1.2,0.7,2.9,1,4.5,1.2c5.3,0.7,10-2.1,12.8-3.9c1-0.6,2.4-1.7,2.5-2.1c0.1-0.4-2.8,0.4-4.1,0.6
		c-2.3,0.3-6.1,0.3-8.8,0.2c-13.8-0.9-20.7-12.1-23.6-19.3c-0.3-0.7-0.6-2.1-0.4-2.1c0.2,0.1,1.2,1,2.3,2c7.6,6.5,15.8,7.4,17.7,7.2
		c0.4-0.1,0.4-0.6-0.4-0.9c-2.6-1.2-6-4.3-6.6-4.9c-5.2-5.3-6.8-8.7-9.1-12.8c-9.3-16.5-4.7-31.1,0.7-37.6c0.4-0.5,1.8-1.9,1.5-1.6
		c1.2-1.6-0.9,4-1.1,6.1c-1.5,16,5.6,25.2,9.8,28c0.5,0.4-2.1-5.8-2.5-6.8c-1-3-1.7-7.9-1.9-9.7c-1.8-24.2,11.4-42.2,35.7-46.1
		c3.2-0.5-1.3,1.5-2.7,2.3c-2.4,1.5-6.3,4.5-8.8,7.4c-14,16.1-11.5,32-5.8,42.7c1.6,3,6.2,9.6,10.5,10.7c0.1,0,0.6-3.2,1-4.7
		c0.7-2.6,2.2-4.9,3.5-6.9c0.2-0.3,0.8-1.1,0.5-1.3c-0.8-0.6-1.5-0.8-2.1-1.3c-2.1-1.9-4-5.9-3.1-5.4c5.3,2.9,8.9,0.4,9.6-0.1
		c1.9-1.4,3.3-3.9,4-6.5c0.5-2.1,1.1-4.4,0.4-6.7c-0.3-1.1-2-3.1-3.7-2.7c-0.2,0.1-0.4,0.3-0.5,0.5c-0.7,1-0.3,1.5,0.5,1.9
		c0.8,0.4,0.4,0.8-0.6,1c-2.2,0.3-4-1.5-2.9-3.7c0.5-1.1,1.6-1.6,2.4-2.4c-1.9-0.7-3.7,3-5,3.9c-1.1,0.7-3,1.2-4.8,0.8
		c-1.2-0.2-1.7-0.5-2.3-1.3c-0.5-0.7-1.1-1.8-0.9-3c0.1-0.7,0.5-1.5,0.9-1.5c0.3,0,0,1.6,0.4,2.4c1.6,2.9,4.9,0.2,6.2-1
		c0.7-0.7,1.7-1.6,2.6-2.1c0.7-0.4,1.7-0.7,1.8-0.8c0.2-0.1,0.3-0.4-0.2-0.7c-2.2-1.5-4.6-0.7-5.7,1.2c-0.4,0.8-0.6,1.6-1.1,2.2
		c-0.8-0.4-1-0.9-1.4-1.6c-0.5-0.9-1-1.6-1.4-2.7c-0.5-1.6-0.9-3.6,0-5.2c0.7-1.4,2.2-2.5,3.8-3.1c0.5-0.2,1.3-0.1,1.8-0.4
		c0.3-0.2,0.5-0.8,0.8-1.1c0.5-0.6,1.4-1.2,2.1-1.6c6.9-3.1,11.7,3.6,17.5,4c2.8,0.2,5.5-0.9,7.1-1.9c0.4-0.2,0.7-0.5,1.1-0.7
		c0.3-0.3,0.3,0,0,0.5c-1.3,2.6-2.2,4.3-4.8,6.2c-0.4,0.3-0.8,0.6-0.5,1.1c3.1,4.8,2.8,7.4,3.2,9.9c0.2,1.2,0,2.8-0.1,3.7
		c-0.3,2.3-1,5.5-1.1,6.1c-0.4,2-1,3.8-1.3,5.7c-0.4,2.9,0.7,5,1.3,6.8c1.2,3.8,6.2,5.1,5.9,5.5c-0.2,0.4-6.1-0.7-6.4-0.5
		c-0.6,0.4,1.9,5.2,3.8,7.5c0.4,0.6,0.9,1.6,1.8,0.9c6.2-4.5,7.6-8.5,9.3-11.8c1.8-3.6,3.8-10.8,2.1-20.8
		C105.8,282.5,102.1,271.3,91.4,264.3 M72.9,278.7c2.7-1.3,1.6-4.6-1.6-4.6c0,0.1-0.1,0.2-0.2,0.4c0.5,0.4,1.1,0.9,1.3,1.6
		c0.2,1.2-0.7,1.9-1.1,2.5C71.6,279.1,72.4,279,72.9,278.7 M69.8,355.9l6.8,0c-0.3-0.9-1.8-0.8-1.8-1.6V345c0.3,0,0.5,0,0.6,0l1.9,0
		c3.8,0.1,6.9,6,9.4,9c0.6,0.7,1.5,1.4,2.4,1.7c1.3,0.5,3.4,0.3,4.6-0.1c0.3-0.1,0.5-0.2,0.6-0.7c-0.7,0-2.6,0-3.8-1.5
		c-0.7-0.8-0.8-0.9-1.5-1.8c-2-2.5-4.4-5.8-7.8-7.3c0,0,3.2-0.5,4.9-2c1.8-1.7,2.5-5.4,0.7-7.8c-0.4-0.5-0.9-1-1.4-1.3
		c-0.6-0.4-1-0.6-2.2-1c-3.8-1.2-13.3-0.7-13.3-0.7c0,1,1.7,1.3,1.7,2.1c0,0.8,0,6.7,0,9.5c-0.7,0.1-1.5,0.2-2.4,0.5l-1,2.2
		c1-0.4,2.1-0.6,3.4-0.8l0,0.5l0,8.7C71.6,355,70.1,354.9,69.8,355.9"/>
	<path class="st1" d="M74.8,343l0-9.5c0.8-0.1,6-0.1,7.7,0.9c1.3,0.8,2.1,2.4,2.1,3.4c0,4.1-3,5.2-6.6,5.2L74.8,343z M90.5,353.4
		c-0.7-0.8-0.8-0.9-1.5-1.8c-2-2.5-4.4-5.8-7.8-7.3c0,0,3.2-0.5,4.9-2.1c1.8-1.7,2.5-5.4,0.7-7.8c-0.4-0.5-0.9-1-1.4-1.3
		c-0.6-0.4-1-0.6-2.2-1c-3.8-1.2-13.3-0.7-13.3-0.7c0,1,1.7,1.3,1.7,2.1c0,0.8,0,6.7,0,9.5c-0.7,0.1-1.5,0.2-2.4,0.5l-1,2.2
		c1-0.4,2.1-0.6,3.4-0.8l0,0.5l0,8.7c0,0.8-1.5,0.7-1.8,1.7l6.8,0c-0.3-0.9-1.8-0.8-1.8-1.6V345c0.3,0,0.5,0,0.6,0l1.9,0
		c3.8,0.1,6.9,6,9.4,9c0.6,0.7,1.5,1.4,2.4,1.7c1.3,0.5,3.4,0.3,4.6-0.1c0.3-0.1,0.5-0.2,0.6-0.7C93.7,354.9,91.8,354.8,90.5,353.4"
		/>
	<path class="st0" d="M178.8,322.8c0,1.5,0.3,2,1.2,2.4c2.9,1,6.9,1.4,10.3,1.4c5.4,0,7.2-0.5,9.7-2.3c4.1-3,8-9.3,8-20.4
		c0-19.3-12.8-24.9-20.8-24.9c-3.4,0-5.9,0.1-7.2,0.5c-1,0.3-1.2,0.8-1.2,1.9V322.8z M162.8,312c0-20.7,0-24.5-0.3-28.8
		c-0.3-4.6-1.4-6.8-5.9-7.8c-1.1-0.3-3.4-0.4-5.3-0.4c-1.5,0-2.3-0.3-2.3-1.2c0-1,1-1.2,3-1.2c7.2,0,15.8,0.4,18.6,0.4
		c4.6,0,15-0.4,19.2-0.4c8.6,0,17.7,0.8,25,5.9c3.8,2.6,9.3,9.5,9.3,18.6c0,10.1-4.2,19.3-18,30.5c12.1,15.2,21.5,27.4,29.5,35.8
		c7.6,7.9,13.2,8.8,15.2,9.3c1.5,0.3,2.7,0.4,3.8,0.4c1.1,0,1.6,0.4,1.6,1.1c0,1.1-1,1.4-2.6,1.4h-12.9c-7.6,0-11-0.7-14.6-2.6
		c-5.9-3.1-11-9.5-18.6-20c-5.4-7.5-11.7-16.7-13.5-18.8c-0.7-0.8-1.5-1-2.4-1l-11.8-0.3c-0.7,0-1.1,0.3-1.1,1.1v1.9
		c0,12.7,0,23.4,0.7,29.1c0.4,3.9,1.2,6.9,5.3,7.5c2,0.3,5,0.5,6.7,0.5c1.1,0,1.6,0.4,1.6,1.1c0,1-1,1.4-2.7,1.4
		c-7.9,0-18-0.4-20-0.4c-2.6,0-11.2,0.4-16.6,0.4c-1.8,0-2.7-0.4-2.7-1.4c0-0.7,0.5-1.1,2.2-1.1c2,0,3.7-0.3,4.9-0.5
		c2.7-0.5,3.4-3.5,3.9-7.5c0.7-5.7,0.7-16.5,0.7-29V312z"/>
	<path class="st0" d="M246,312c0-20.7,0-24.5-0.3-28.8c-0.3-4.6-1.4-6.8-5.9-7.8c-1.1-0.3-3.4-0.4-5.3-0.4c-1.5,0-2.3-0.3-2.3-1.2
		c0-1,1-1.2,3-1.2c7.2,0,15.8,0.4,19.9,0.4c3.3,0,11.8-0.4,16.7-0.4c2,0,3,0.3,3,1.2c0,1-0.8,1.2-2.2,1.2c-1.5,0-2.3,0.1-3.9,0.4
		c-3.7,0.7-4.8,3-5,7.8c-0.3,4.4-0.3,8.2-0.3,28.8v19.1c0,19.7,3.9,28,10.6,33.5c6.1,5,12.4,5.6,17,5.6c6,0,13.3-1.9,18.8-7.3
		c7.5-7.5,7.9-19.7,7.9-33.8v-17c0-20.7,0-24.5-0.3-28.8c-0.3-4.6-1.4-6.8-5.9-7.8c-1.1-0.3-3.4-0.4-4.9-0.4c-1.5,0-2.3-0.3-2.3-1.2
		c0-1,1-1.2,2.9-1.2c6.9,0,15.5,0.4,15.6,0.4c1.6,0,10.2-0.4,15.5-0.4c1.9,0,2.9,0.3,2.9,1.2c0,1-0.8,1.2-2.4,1.2
		c-1.5,0-2.3,0.1-3.9,0.4c-3.7,0.7-4.8,3-5,7.8c-0.3,4.4-0.3,8.2-0.3,28.8v14.6c0,15.1-1.5,31.2-12.9,41c-9.7,8.3-19.5,9.8-28.3,9.8
		c-7.2,0-20.3-0.4-30.2-9.4c-6.9-6.3-12.1-16.3-12.1-36.1V312z"/>
	<path class="st0" d="M434.8,366.3c0,3.7-0.1,3.9-1.8,4.9c-8.8,4.6-22.2,6.1-32.8,6.1c-33.3,0-62.9-15.8-62.9-53.3
		c0-21.8,11.3-37,23.7-44.5c13.1-7.9,25.2-8.8,36.6-8.8c9.4,0,21.4,1.6,24.1,2.2c2.9,0.5,7.6,1.4,10.8,1.5c1.6,0.1,1.9,0.7,1.9,1.6
		c0,1.5-1,5.3-1,22.3c0,2.2-0.4,2.9-1.5,2.9c-1,0-1.2-0.7-1.4-1.8c-0.4-3.1-1.1-7.5-4.6-11.3c-4.1-4.4-15-10.6-30.3-10.6
		c-7.5,0-17.4,0.5-26.9,8.4c-7.6,6.4-12.5,16.6-12.5,33.3c0,29.3,18.6,51.2,47.4,51.2c3.5,0,8.3,0,11.6-1.5c2-1,2.6-2.7,2.6-5v-12.8
		c0-6.8,0-12-0.1-16.1c-0.1-4.6-1.4-6.8-5.8-7.8c-1.1-0.3-3.4-0.4-5.3-0.4c-1.2,0-2-0.3-2-1.1c0-1.1,1-1.4,2.9-1.4
		c7.1,0,15.6,0.4,19.7,0.4c4.2,0,11.4-0.4,15.9-0.4c1.8,0,2.7,0.3,2.7,1.4c0,0.8-0.8,1.1-1.8,1.1c-1.1,0-2,0.1-3.7,0.4
		c-3.7,0.7-5,3-5.2,7.8c-0.1,4.1-0.1,9.5-0.1,16.3V366.3z"/>
	<path class="st0" d="M457.1,312c0-20.7,0-24.5-0.3-28.8c-0.3-4.6-1.4-6.8-5.9-7.8c-1.1-0.3-3.4-0.4-5.3-0.4c-1.5,0-2.3-0.3-2.3-1.2
		c0-1,1-1.2,3-1.2c3.7,0,7.6,0.1,11,0.1c3.5,0.1,6.7,0.3,8.6,0.3c4.4,0,31.4,0,34-0.1c2.6-0.3,4.8-0.5,5.9-0.8
		c0.7-0.1,1.5-0.5,2.2-0.5c0.7,0,0.8,0.5,0.8,1.2c0,1-0.7,2.6-1.1,8.8c-0.1,1.4-0.4,7.3-0.7,9c-0.1,0.7-0.4,1.5-1.4,1.5
		c-1,0-1.2-0.7-1.2-1.9c0-1-0.1-3.3-0.8-4.9c-1-2.5-2.3-4.1-9.1-4.9c-2.3-0.3-16.6-0.5-19.3-0.5c-0.7,0-1,0.4-1,1.4v34.4
		c0,1,0.1,1.5,1,1.5c3,0,18.6,0,21.8-0.3c3.3-0.3,5.3-0.7,6.5-2c1-1.1,1.5-1.8,2.2-1.8c0.5,0,1,0.3,1,1.1c0,0.8-0.5,3-1.1,9.9
		c-0.1,2.7-0.5,8.2-0.5,9.1c0,1.1,0,2.6-1.2,2.6c-1,0-1.2-0.5-1.2-1.2c-0.1-1.4-0.1-3.1-0.5-4.9c-0.7-2.7-2.6-4.8-7.6-5.3
		c-2.6-0.3-16.1-0.4-19.3-0.4c-0.7,0-0.8,0.5-0.8,1.4V336c0,4.6-0.1,17.1,0,21.1c0.3,9.4,2.5,11.4,16.3,11.4c3.5,0,9.3,0,12.8-1.6
		c3.5-1.6,5.2-4.5,6.1-10.1c0.3-1.5,0.5-2,1.5-2c1.1,0,1.1,1.1,1.1,2.5c0,3.1-1.1,12.4-1.8,15.1c-1,3.5-2.2,3.5-7.3,3.5
		c-10.2,0-17.7-0.3-23.5-0.4c-5.9-0.3-10.1-0.4-14.2-0.4c-1.5,0-4.5,0-7.8,0.1c-3.1,0-6.7,0.3-9.4,0.3c-1.8,0-2.7-0.4-2.7-1.4
		c0-0.7,0.5-1.1,2.2-1.1c2,0,3.7-0.3,4.9-0.5c2.7-0.5,3.4-3.5,3.9-7.5c0.7-5.7,0.7-16.5,0.7-29V312z"/>
	<path class="st0" d="M543.5,322.8c0,1.5,0.3,2,1.2,2.4c2.9,1,6.9,1.4,10.3,1.4c5.4,0,7.2-0.5,9.7-2.3c4.1-3,8-9.3,8-20.4
		c0-19.3-12.8-24.9-20.8-24.9c-3.4,0-5.9,0.1-7.2,0.5c-1,0.3-1.2,0.8-1.2,1.9V322.8z M527.4,312c0-20.7,0-24.5-0.3-28.8
		c-0.3-4.6-1.4-6.8-5.9-7.8c-1.1-0.3-3.4-0.4-5.3-0.4c-1.5,0-2.3-0.3-2.3-1.2c0-1,1-1.2,3-1.2c7.2,0,15.8,0.4,18.6,0.4
		c4.6,0,15-0.4,19.2-0.4c8.6,0,17.7,0.8,25,5.9c3.8,2.6,9.3,9.5,9.3,18.6c0,10.1-4.2,19.3-18,30.5c12.1,15.2,21.5,27.4,29.5,35.8
		c7.6,7.9,13.2,8.8,15.2,9.3c1.5,0.3,2.7,0.4,3.8,0.4c1.1,0,1.6,0.4,1.6,1.1c0,1.1-1,1.4-2.6,1.4h-12.9c-7.6,0-11-0.7-14.6-2.6
		c-5.9-3.1-11-9.5-18.6-20c-5.4-7.5-11.7-16.7-13.5-18.8c-0.7-0.8-1.5-1-2.5-1l-11.8-0.3c-0.7,0-1.1,0.3-1.1,1.1v1.9
		c0,12.7,0,23.4,0.7,29.1c0.4,3.9,1.2,6.9,5.3,7.5c2,0.3,5,0.5,6.7,0.5c1.1,0,1.6,0.4,1.6,1.1c0,1-1,1.4-2.7,1.4
		c-7.9,0-18-0.4-20-0.4c-2.6,0-11.2,0.4-16.6,0.4c-1.8,0-2.7-0.4-2.7-1.4c0-0.7,0.5-1.1,2.2-1.1c2,0,3.7-0.3,4.9-0.5
		c2.7-0.5,3.4-3.5,3.9-7.5c0.7-5.7,0.7-16.5,0.7-29V312z"/>
</g>
</svg>
