<?xml version="1.0" encoding="utf-8"?>
<!-- Generator: Adobe Illustrator 19.2.1, SVG Export Plug-In . SVG Version: 6.00 Build 0)  -->
<svg version="1.1" id="layer" xmlns="http://www.w3.org/2000/svg" xmlns:xlink="http://www.w3.org/1999/xlink" x="0px" y="0px"
	 viewBox="0 0 652 652" style="enable-background:new 0 0 652 652;" xml:space="preserve">
<style type="text/css">
	.st0{fill-rule:evenodd;clip-rule:evenodd;fill:#ED7700;}
</style>
<g>
	<path class="st0" d="M605.3,270.7c2.2,0,4.2-0.2,4.2-2.8c0-2.1-1.9-2.5-3.8-2.5h-3.6v5.4H605.3z M602.2,280.4h-2.6v-17.3h6.6
		c4.1,0,6.1,1.5,6.1,4.9c0,3.1-1.9,4.4-4.5,4.8l4.9,7.6h-2.9l-4.6-7.5h-3V280.4z M605.3,284.3c6.8,0,12.2-5.3,12.2-12.6
		c0-7.1-5.4-12.5-12.2-12.5c-6.9,0-12.2,5.4-12.2,12.5C593.1,279,598.5,284.3,605.3,284.3 M590.1,271.7c0-8.6,7-15,15.3-15
		c8.2,0,15.2,6.4,15.2,15c0,8.7-7,15.1-15.2,15.1C597.1,286.8,590.1,280.4,590.1,271.7 M526.4,257.8h38.3l-36,95.7l79.6,0.1L596,385
		H478.1L526.4,257.8z M448.6,301.7l16.7-43.8h38.3l-48.3,127.1H417l19.5-51.6l-45.4-0.1l-19.6,51.7h-38.3L381.5,258h38.3l-16.7,43.8
		L448.6,301.7z M358,258l-48.3,127.1h-38.3L319.6,258H358z M257.3,289.4l-36,95.7h-38.3l36-95.7l-40.9-0.1l12.3-31.6h118.5
		l-12.3,31.6L257.3,289.4z M64.9,337c-9.3,0-16.9-7.5-16.9-16.9c0-2.3,0.4-4.4,1.3-6.4l16.3-41.4c3.2-8.5,11.3-14.5,20.9-14.5
		l94.7-0.1l-12.3,31.6H96.7l-6.3,15.9l53.3,0c9.3,0,16.9,7.5,16.9,16.9c0,2.3-0.4,4.4-1.3,6.4L143,370c-3.1,8.5-11.3,14.5-20.9,14.5
		l-101.7,0.1L32.8,353h79.1l6.3-15.9L64.9,337z"/>
</g>
</svg>
