<?xml version="1.0" encoding="utf-8"?>
<!-- Generator: Adobe Illustrator 19.2.1, SVG Export Plug-In . SVG Version: 6.00 Build 0)  -->
<svg version="1.1" id="layer" xmlns="http://www.w3.org/2000/svg" xmlns:xlink="http://www.w3.org/1999/xlink" x="0px" y="0px"
	 viewBox="0 0 652 652" style="enable-background:new 0 0 652 652;" xml:space="preserve">
<style type="text/css">
	.st0{fill:#00863C;}
	.st1{clip-path:url(#SVGID_2_);fill:url(#SVGID_3_);}
	.st2{clip-path:url(#SVGID_5_);}
	.st3{clip-path:url(#SVGID_7_);}
	.st4{clip-path:url(#SVGID_9_);fill:#004C2E;}
	.st5{fill:#004C2E;}
	.st6{fill:#004D19;}
	.st7{clip-path:url(#SVGID_11_);fill:url(#SVGID_12_);}
	.st8{clip-path:url(#SVGID_14_);fill:url(#SVGID_15_);}
	.st9{clip-path:url(#SVGID_17_);fill:url(#SVGID_18_);}
	.st10{clip-path:url(#SVGID_20_);fill:url(#SVGID_21_);}
	.st11{clip-path:url(#SVGID_23_);fill:url(#SVGID_24_);}
	.st12{clip-path:url(#SVGID_26_);fill:url(#SVGID_27_);}
	.st13{clip-path:url(#SVGID_29_);fill:url(#SVGID_30_);}
	.st14{clip-path:url(#SVGID_32_);fill:url(#SVGID_33_);}
	.st15{clip-path:url(#SVGID_35_);fill:url(#SVGID_36_);}
	.st16{clip-path:url(#SVGID_38_);fill:url(#SVGID_39_);}
	.st17{clip-path:url(#SVGID_41_);fill:url(#SVGID_42_);}
	.st18{clip-path:url(#SVGID_44_);fill:url(#SVGID_45_);}
	.st19{clip-path:url(#SVGID_47_);fill:url(#SVGID_48_);}
	.st20{clip-path:url(#SVGID_50_);fill:url(#SVGID_51_);}
	.st21{clip-path:url(#SVGID_53_);fill:url(#SVGID_54_);}
	.st22{clip-path:url(#SVGID_56_);fill:url(#SVGID_57_);}
	.st23{clip-path:url(#SVGID_59_);fill:url(#SVGID_60_);}
	.st24{clip-path:url(#SVGID_62_);fill:url(#SVGID_63_);}
	.st25{clip-path:url(#SVGID_65_);fill:url(#SVGID_66_);}
	.st26{clip-path:url(#SVGID_68_);fill:url(#SVGID_69_);}
	.st27{clip-path:url(#SVGID_71_);fill:url(#SVGID_72_);}
	.st28{clip-path:url(#SVGID_74_);fill:url(#SVGID_75_);}
	.st29{clip-path:url(#SVGID_77_);fill:url(#SVGID_78_);}
	.st30{fill:#FFFFFF;}
</style>
<g>
	<path class="st0" d="M531.1,227.8c-10.5-4.8-21.7-9.2-33.5-13.3c-50.7-17.3-112-26.6-176.4-26.6c-79.3,0-153.8,14.2-209.8,39.9
		c-54.8,25.1-85,58.2-85,93c0,16,6.4,31.7,18.7,46.4c14.3,17.2,36.7,33,66.2,46.6c55.9,25.7,130.5,39.8,209.8,39.8
		c79.4,0,153.9-14.2,209.9-39.8c54.7-25.2,84.9-58.2,84.9-93C616,286,585.8,253,531.1,227.8"/>
</g>
<g>
	<defs>
		<path id="SVGID_1_" d="M21.5,321.2c0,76.3,134.3,138.2,300,138.2c165.7,0,300-61.9,300-138.2c0-76.3-134.3-138.2-300-138.2
			C155.8,183,21.5,244.9,21.5,321.2"/>
	</defs>
	<clipPath id="SVGID_2_">
		<use xlink:href="#SVGID_1_"  style="overflow:visible;"/>
	</clipPath>
	
		<radialGradient id="SVGID_3_" cx="23.2011" cy="730.2744" r="8.1777" gradientTransform="matrix(54.7654 0 0 25.2314 -1056.7579 -18234.7832)" gradientUnits="userSpaceOnUse">
		<stop  offset="0" style="stop-color:#79BC2A"/>
		<stop  offset="0.1011" style="stop-color:#79BC2A"/>
		<stop  offset="0.5393" style="stop-color:#00863C"/>
		<stop  offset="0.6863" style="stop-color:#006F2E"/>
		<stop  offset="0.8813" style="stop-color:#00561F"/>
		<stop  offset="1" style="stop-color:#004D19"/>
	</radialGradient>
	<rect x="21.5" y="183" class="st1" width="600" height="276.4"/>
</g>
<g>
	<defs>
		<path id="SVGID_4_" d="M21.6,320.8c0,17.7,7.3,34.7,20.6,50.3c43.8,51.1,152.1,87.4,279,87.4c165.5,0,299.7-61.6,299.7-137.7
			c0-45.1-47.2-85.2-120.2-110.3c-50-17.2-112.1-27.4-179.5-27.4C155.8,183.1,21.6,244.7,21.6,320.8"/>
	</defs>
	<clipPath id="SVGID_5_">
		<use xlink:href="#SVGID_4_"  style="overflow:visible;"/>
	</clipPath>
	<g class="st2">
		<g>
			<defs>
				<rect id="SVGID_6_" x="-2.6" y="170.2" width="646.2" height="301.1"/>
			</defs>
			<clipPath id="SVGID_7_">
				<use xlink:href="#SVGID_6_"  style="overflow:visible;"/>
			</clipPath>
			<g class="st3">
				<defs>
					<rect id="SVGID_8_" x="-2.6" y="170.2" width="646.2" height="301.1"/>
				</defs>
				<clipPath id="SVGID_9_">
					<use xlink:href="#SVGID_8_"  style="overflow:visible;"/>
				</clipPath>
				<path class="st4" d="M517,201.2c-54.3-19.4-122.3-31.1-196.5-31.1C141.3,170.2-2.6,238-2.6,321c0,20.8,9.1,40.7,25.5,58.7
					c49,53.8,163.4,91.5,297.6,91.5c179.3,0,323-67.3,323-150.2C643.5,272.3,594.1,228.8,517,201.2 M324.3,462.9
					c-126.9,0-235.3-36.2-279-87.4c-13.4-15.6-20.6-32.6-20.6-50.3c0-76,134.1-137.7,299.6-137.7c67.2,0,129.4,10.2,179.4,27.4
					c73,25.1,120.2,65.2,120.2,110.3C623.9,401.2,489.8,462.9,324.3,462.9"/>
			</g>
		</g>
	</g>
</g>
<g>
	<path class="st5" d="M400.3,304h20.2l3.7-10.3h-20.2l5.8-16.2h-1.3l-44.2,25.1l-0.4,1.4h15.5L363,349.6
		c-4.7,13.1,3.9,23.9,19.1,23.9c12.2,0,26.1-6.5,30.6-14.8l-0.6-0.9c-6.4,3-13.5,4.4-16.7,4.4c-9.1,0-14-5.4-11-13.7L400.3,304z"/>
	<path class="st5" d="M456.3,304h24.1l3.7-10.3h-24.1l5.8-16.2h-1.3l-39.9,25.1l-0.4,1.4h11.3L419,349.6
		c-4.7,13.1,3.6,23.9,17.8,23.9c11.4,0,24.5-6.5,28.8-14.8l-0.7-0.9c-6,3-12.7,4.4-15.6,4.4c-8.6,0-12-5.4-9-13.7L456.3,304z"/>
	<path class="st5" d="M359.6,333.2c-6.5,22.4-29.7,40.6-51.8,40.6c-22.1,0-34.8-18.2-28.3-40.6c6.5-22.4,29.7-40.6,51.8-40.6
		C353.4,292.5,366.1,310.7,359.6,333.2 M330.3,302.2c-12.8,0-22.7,13.9-28.6,30.9c-5.9,17.1-5.6,30.9,7.2,30.9
		c12.8,0,22.7-13.8,28.6-30.9C343.4,316.1,343.1,302.2,330.3,302.2"/>
	<path class="st5" d="M226.5,333c5-17.3,18.2-30.7,29.2-30.7c11,0,17.6,11.3,16.8,26.7h1.2l13.2-36.5h-1l-13.8,6.3
		c-4.8-4-10.1-6.4-17.5-6.4c-20.6,0-42.7,17.3-49.8,40.8c-6.8,22.6,6.5,40.4,27.5,40.4c15.6,0,33.3-10.9,38.8-23.2l-0.8-0.7
		c-8.8,7.2-20.8,13.5-29.4,13.5C226.3,363.3,221.5,350.2,226.5,333"/>
	<path class="st5" d="M167,302.2c15.7,6.7,34.5,13.5,30.7,36.8c-3.2,19.4-22.3,34.9-45.3,34.9c-11.7,0-24.5-3.9-31.9-9.2l-19.3,9.3
		h-1l18.5-51.6h1c1.5,28.3,14.6,41.6,32.8,41.6c11.4,0,20.8-7.5,22.4-16.4c2.1-11.8-8.9-16.4-21.1-21.4
		c-14.9-6.1-31.5-14.7-27.9-35.7c3.2-18.5,22.3-34.2,45.3-34.2c10.6,0,20.8,3,28.4,8.2l17.7-8.1h1l-15,42h-1.1
		c-2-18.5-14-32.1-31.6-32.1c-11.3,0-21.3,6.4-22.7,15.3C146.3,292.4,155.8,297.3,167,302.2"/>
	<path class="st5" d="M548.6,292.6l-11.9,5.4c-6-3.8-13.9-6-21.1-6c-16.7,0-30.5,10.6-32.7,23.5c-2.6,14.6,9.4,21,20.2,25.3
		c8.8,3.5,16.8,6.9,15.3,15.1c-1.1,6.2-8,10.9-16.2,10.9c-13.2,0-21.8-9-23-28.7h-1l-12.7,35.7h1l13.2-6c5.4,3.5,14.3,6,22.4,6
		c16.6,0,31.2-9.8,33.5-23.3c2.8-16.2-11.7-22.1-23-26.8c-8.1-3.3-15-6.7-13.8-14.4c1-6.2,8.1-10.4,16.3-10.4
		c12.8,0,21.4,9.5,22.9,22.3h1.3l10.3-28.7H548.6z"/>
	<path class="st6" d="M551.7,295.8l-2.1,1l1.1-3.1l-3.4-4.1h-1.1l-11.9,5.3c-6.1-3.7-13.9-6-21.2-6c-11.6,0-21.8,5.2-27.7,12.6
		l1.7-4.6h-2.9l0.7-2.1l-3.4-4.2h-16.3l3.6-10h-1.3l-2,1.3l1.2-3.3l-3.5-4.2H462l-35.7,22.5h-1.9l0.7-2.1l-3.4-4.2l-2.2,6.2l0.7-2.1
		l1.5-4.2h-12.5l3.6-10h-1.3l-2,1.1l1.1-3.1l-3.4-4.2H406l-44.2,25.2l-0.4,1.3l3.4,4.2h3.8l-1.2,0.7l-0.4,1.4h7.8l-14.1,39.4
		c-2.8,7.8-0.9,14.6,4.2,19c0.9,1.6,2.2,3.1,3.6,4.3c3.5,4.2,9.3,6.8,16.8,6.8c12.2,0,26-6.5,30.6-14.8L415,361
		c-1,0.5-2.1,0.9-3.2,1.3c0.6-0.8,1.3-1.6,1.7-2.5l-3.5-4.2l-0.6-0.8c-6.4,3-13.5,4.4-16.6,4.4c-2.4,0-4.5-0.4-6.2-1
		c-0.4-1.9-0.2-4,0.7-6.5l15.9-44.5h20.2l1-2.7l0.5,0.6h3.7l-1.1,0.7l-0.4,1.4h3.5l-14.2,39.4c-2.8,7.9-0.9,15,4.1,19.3
		c0.9,1.7,2.2,3.2,3.8,4.4c3.3,3.9,8.7,6.4,15.4,6.4c8.6,0,18.3-3.7,24.3-9.2l-1.2,3.2l3.4,4.1h1l2.2-1l-1.1,3.1h1l13.2-6
		c5.4,3.5,14.3,6,22.5,6c16.6,0,31.2-9.8,33.5-23.3c1.4-8.3-1.7-13.8-6.5-17.9c-0.4-0.4-0.8-0.8-1.2-1.2c-4.3-7-13.2-10.7-20.8-13.8
		c-2.9-1.2-5.7-2.5-8-3.9c-0.4-1.3-0.5-2.7-0.3-4.3c1-6.2,8.1-10.4,16.3-10.4c5.3,0,9.8,1.6,13.4,4.4c2.1,3.3,3.4,7.3,3.9,11.7
		l3.4,4.1h1.3l0.3-0.8c0.2,1,0.4,1.9,0.5,2.9h1.4l10.3-28.6H551.7z M464,370.7l4.7-2.1l1.5-0.7L464,370.7z M506.1,343.8
		c3.5,1.4,6.8,2.7,9.5,4.4c0.4,1.3,0.6,2.8,0.2,4.5c-1.2,6.1-8,10.9-16.2,10.9c-4.8,0-9-1.2-12.5-3.7c-2.7-4.6-4.4-10.8-4.9-18.7
		h-1.1l-0.6,1.9c-0.2-1.2-0.3-2.6-0.4-3.9l-3.4-4.2l0.4,3.9l0.7,4.1c-0.5-2.5-0.9-5.1-1-8h-1.1l-9.6,26.7c-0.5,0.2-0.9,0.4-1.3,0.5
		c0.7-0.8,1.2-1.7,1.7-2.6l-3.4-4.2l-0.7-0.8c-6.1,3-12.7,4.4-15.7,4.4c-1.7,0-3.1-0.2-4.4-0.6c-0.3-1.9,0.1-4.3,1-6.9l16-44.5H482
		c-0.8,1.7-1.3,3.5-1.6,5.3c-1.3,7.6,1.2,12.9,5.5,16.9c1.1,1.7,2.5,3.2,4,4.6C493.9,338.5,500.2,341.5,506.1,343.8 M354.8,302.7
		c-0.3-0.3-0.6-0.7-0.9-0.9c-5.1-7.6-13.9-12.3-25.1-12.3c-19.1,0-38.9,13.5-48.1,31.6l9.2-25.5h-1l-2.2,1l1.1-3l-3.4-4.2h-1
		l-13.8,6.3c-4.9-4-10.1-6.4-17.5-6.4c-20.6,0-42.7,17.3-49.8,40.8c-0.4,1.5-0.8,2.9-1.1,4.4c-0.5-7.5-3.7-12.8-8.4-16.9
		c-0.3-0.4-0.6-0.7-0.9-1c-5.8-8.8-17.2-13.2-27.3-17.5c-4.7-2-9-4-12.4-6.5c-1.1-2.3-1.5-4.9-1.1-8c1.4-8.9,11.3-15.4,22.6-15.4
		c7.6,0,14.2,2.6,19.3,6.9c3.6,5.3,6,11.7,6.7,19l3.4,4.2h1.1l0.6-1.4c0.2,1.1,0.4,2.3,0.5,3.5h1.1l15-42h-1l-2.2,1l1.1-3l-3.5-4.2
		l-3.5,9.9l1.3-3.6l2.2-6.3h-1l-17.7,8.1c-7.6-5.2-17.7-8.2-28.4-8.2c-23,0-42.1,15.7-45.3,34.2c-1.8,10.5,1.5,17.9,7,23.4
		c1.4,2,2.9,3.7,4.7,5.3c5.6,6,13.9,9.9,21.8,13.2c5.5,2.3,10.7,4.4,14.6,7.2c1,2.3,1.5,4.9,0.9,8c-1.6,8.9-11.1,16.4-22.4,16.4
		c-7.3,0-13.9-2.2-19.2-6.7c-4.5-6.8-7.4-16.3-8.1-28.6h-1.1l-0.7,2c-0.2-1.3-0.3-2.7-0.3-4.1l-3.5-4.1l0.4,4l0.5,4.3
		c-0.4-2.6-0.7-5.4-0.9-8.3h-1.1l-18.6,51.6l3.5,4.1h1l2.2-1l-1.1,3.1h1l19.3-9.3c7.4,5.3,20.2,9.2,31.9,9.2
		c22.5,0,41.3-14.9,45-33.8c0.3,7.8,3.3,14.6,8.2,19.4c1.2,1.9,2.8,3.6,4.5,5.1c5.2,5.7,12.9,9.1,22,9.1c15.6,0,33.3-10.9,38.9-23.2
		l-0.8-0.7c-1.2,0.9-2.5,1.9-3.7,2.8c0.9-1.4,1.8-2.7,2.4-4.2l-3.4-4.2l-0.8-0.7c-8.8,7.1-20.8,13.5-29.5,13.5
		c-3.5,0-6.4-0.8-8.8-2.2c-2.5-5.4-2.5-13.1,0-21.9c5-17.2,18.2-30.7,29.2-30.7c2.9,0,5.6,0.8,7.8,2.3c2.6,4.6,3.8,10.9,3.4,18.1
		l3.5,4.1h1.2l1-2.6c0,1.5,0,3.1,0,4.6h1c-3,12.5-0.1,23.5,7.1,30.6c1.3,1.9,2.8,3.6,4.5,5.1c5.3,5.7,13.1,9.2,22.8,9.2
		c22.1,0,45.3-18.2,51.8-40.6C366.7,322.3,363.3,309.9,354.8,302.7 M201.8,292.2l0.7-2l-1.8,5L201.8,292.2z M98.7,370.7l4.7-2.3
		l3.5-1.7L98.7,370.7z M267.7,349c-2.4,4.5-5.6,7.5-7.8,9.4C263.2,355.5,265.9,352.3,267.7,349 M271.1,325.8l1.8-5l1-2.6
		L271.1,325.8z M335,330c-5.9,17.1-15.8,30.9-28.6,30.9c-1.8,0-3.3-0.3-4.6-0.8c-1.7-5.7-0.4-14.2,3-23.9
		c5.9-17.1,15.8-30.9,28.6-30.9c1.8,0,3.2,0.3,4.5,0.8C339.7,311.8,338.4,320.4,335,330"/>
</g>
<g>
	<defs>
		<polygon id="SVGID_10_" points="367.1,297.8 358.3,297.8 361.7,302 372.3,302 373.8,297.8 		"/>
	</defs>
	<clipPath id="SVGID_11_">
		<use xlink:href="#SVGID_10_"  style="overflow:visible;"/>
	</clipPath>
	
		<linearGradient id="SVGID_12_" gradientUnits="userSpaceOnUse" x1="48.9388" y1="697.6496" x2="57.1165" y2="697.6496" gradientTransform="matrix(0 10.4361 -10.4361 0 7646.7617 -225.3499)">
		<stop  offset="0" style="stop-color:#C8C9CA"/>
		<stop  offset="7.865170e-002" style="stop-color:#C8C9CA"/>
		<stop  offset="1" style="stop-color:#939494"/>
	</linearGradient>
	<rect x="358.3" y="297.8" class="st7" width="15.6" height="4.1"/>
</g>
<g>
	<defs>
		<path id="SVGID_13_" d="M415,297.8h-20.2l-16,44.5c-1.9,5.4-0.6,9.5,3.1,11.8c-0.7-2.1-0.7-4.6,0.4-7.6l16-44.6h20.2l1.5-4.1h-1.4
			l0.5-1.4l1.8-1.1l1.3-3.7l-3.5-4.2L415,297.8z"/>
	</defs>
	<clipPath id="SVGID_14_">
		<use xlink:href="#SVGID_13_"  style="overflow:visible;"/>
	</clipPath>
	
		<linearGradient id="SVGID_15_" gradientUnits="userSpaceOnUse" x1="48.7548" y1="695.0134" x2="56.9325" y2="695.0134" gradientTransform="matrix(0 10.5032 -10.5032 0 7699.3486 -226.7684)">
		<stop  offset="0" style="stop-color:#C8C9CA"/>
		<stop  offset="7.865170e-002" style="stop-color:#C8C9CA"/>
		<stop  offset="1" style="stop-color:#939494"/>
	</linearGradient>
	<rect x="376.8" y="287.5" class="st8" width="45.3" height="66.6"/>
</g>
<g>
	<defs>
		<polygon id="SVGID_16_" points="401.8,278.1 398.4,287.5 403.4,287.5 407.7,275.5 404.3,271.3 		"/>
	</defs>
	<clipPath id="SVGID_17_">
		<use xlink:href="#SVGID_16_"  style="overflow:visible;"/>
	</clipPath>
	
		<linearGradient id="SVGID_18_" gradientUnits="userSpaceOnUse" x1="48.798" y1="694.6718" x2="56.9758" y2="694.6718" gradientTransform="matrix(0 10.487 -10.487 0 7688.063 -226.427)">
		<stop  offset="0" style="stop-color:#C8C9CA"/>
		<stop  offset="7.865170e-002" style="stop-color:#C8C9CA"/>
		<stop  offset="1" style="stop-color:#939494"/>
	</linearGradient>
	<rect x="398.4" y="271.3" class="st9" width="9.3" height="16.2"/>
</g>
<g>
	<defs>
		<path id="SVGID_19_" d="M401.4,358.9c-6.4,5-16,8.4-24.9,8.4c-6.3,0-11.4-1.8-14.9-4.9c3.1,5.5,9.6,9.1,18.3,9.1
			c12.2,0,26-6.5,30.6-14.8l-3.5-4.2C405,356.1,402.8,357.7,401.4,358.9"/>
	</defs>
	<clipPath id="SVGID_20_">
		<use xlink:href="#SVGID_19_"  style="overflow:visible;"/>
	</clipPath>
	
		<linearGradient id="SVGID_21_" gradientUnits="userSpaceOnUse" x1="48.878" y1="696.0292" x2="57.0557" y2="696.0292" gradientTransform="matrix(0 10.4639 -10.4639 0 7669.2822 -225.914)">
		<stop  offset="0" style="stop-color:#C8C9CA"/>
		<stop  offset="7.865170e-002" style="stop-color:#C8C9CA"/>
		<stop  offset="1" style="stop-color:#939494"/>
	</linearGradient>
	<rect x="361.7" y="352.6" class="st10" width="48.9" height="18.9"/>
</g>
<g>
	<defs>
		<polygon id="SVGID_22_" points="426.9,297.8 418.5,297.8 422,302 428.3,302 429.8,297.8 		"/>
	</defs>
	<clipPath id="SVGID_23_">
		<use xlink:href="#SVGID_22_"  style="overflow:visible;"/>
	</clipPath>
	
		<linearGradient id="SVGID_24_" gradientUnits="userSpaceOnUse" x1="48.9388" y1="692.7609" x2="57.1165" y2="692.7609" gradientTransform="matrix(0 10.4361 -10.4361 0 7653.8696 -225.3499)">
		<stop  offset="0" style="stop-color:#C8C9CA"/>
		<stop  offset="7.865170e-002" style="stop-color:#C8C9CA"/>
		<stop  offset="1" style="stop-color:#939494"/>
	</linearGradient>
	<rect x="418.5" y="297.8" class="st11" width="11.3" height="4.1"/>
</g>
<g>
	<defs>
		<path id="SVGID_25_" d="M474.8,297.8h-24.1l-16,44.5c-2.1,5.9-1.1,10.3,2.8,12.3c-0.7-2.2-0.5-5,0.7-8.2l16-44.6h24.1l3.7-10.3
			l-3.5-4.2L474.8,297.8z"/>
	</defs>
	<clipPath id="SVGID_26_">
		<use xlink:href="#SVGID_25_"  style="overflow:visible;"/>
	</clipPath>
	
		<linearGradient id="SVGID_27_" gradientUnits="userSpaceOnUse" x1="48.7767" y1="690.1565" x2="56.9545" y2="690.1565" gradientTransform="matrix(0 10.495 -10.495 0 7700.4663 -226.5951)">
		<stop  offset="0" style="stop-color:#C8C9CA"/>
		<stop  offset="7.865170e-002" style="stop-color:#C8C9CA"/>
		<stop  offset="1" style="stop-color:#939494"/>
	</linearGradient>
	<rect x="432.6" y="287.5" class="st12" width="49.3" height="67.2"/>
</g>
<g>
	<defs>
		<path id="SVGID_28_" d="M454.6,359c-6.1,5-15.1,8.3-23.3,8.3c-5.7,0-10.4-1.7-13.7-4.6c3,5.3,9.1,8.7,17.1,8.7
			c11.4,0,24.5-6.5,28.8-14.8l-3.4-4.2C458.8,354.6,457.1,356.9,454.6,359"/>
	</defs>
	<clipPath id="SVGID_29_">
		<use xlink:href="#SVGID_28_"  style="overflow:visible;"/>
	</clipPath>
	
		<linearGradient id="SVGID_30_" gradientUnits="userSpaceOnUse" x1="48.878" y1="691.4662" x2="57.0557" y2="691.4662" gradientTransform="matrix(0 10.4639 -10.4639 0 7675.9341 -225.914)">
		<stop  offset="0" style="stop-color:#C8C9CA"/>
		<stop  offset="7.865170e-002" style="stop-color:#C8C9CA"/>
		<stop  offset="1" style="stop-color:#939494"/>
	</linearGradient>
	<rect x="417.6" y="352.6" class="st13" width="45.9" height="18.9"/>
</g>
<g>
	<defs>
		<polygon id="SVGID_31_" points="457.7,278.4 454.4,287.5 459.4,287.5 463.7,275.5 460.2,271.3 		"/>
	</defs>
	<clipPath id="SVGID_32_">
		<use xlink:href="#SVGID_31_"  style="overflow:visible;"/>
	</clipPath>
	
		<linearGradient id="SVGID_33_" gradientUnits="userSpaceOnUse" x1="48.798" y1="689.9847" x2="56.9758" y2="689.9847" gradientTransform="matrix(0 10.487 -10.487 0 7694.9106 -226.427)">
		<stop  offset="0" style="stop-color:#C8C9CA"/>
		<stop  offset="7.865170e-002" style="stop-color:#C8C9CA"/>
		<stop  offset="1" style="stop-color:#939494"/>
	</linearGradient>
	<rect x="454.4" y="271.3" class="st14" width="9.3" height="16.2"/>
</g>
<g>
	<defs>
		<path id="SVGID_34_" d="M296.2,327c-4.8,13.7-5.5,25.2,0.9,29.3c-2.4-5.6-1.1-14.8,2.5-25.2c5.9-17.1,15.8-30.9,28.6-30.9
			c2.6,0,4.6,0.6,6.2,1.6c-1.5-3.6-4.6-5.7-9.6-5.7C311.9,296.1,302,309.9,296.2,327"/>
	</defs>
	<clipPath id="SVGID_35_">
		<use xlink:href="#SVGID_34_"  style="overflow:visible;"/>
	</clipPath>
	
		<linearGradient id="SVGID_36_" gradientUnits="userSpaceOnUse" x1="48.7503" y1="702.2752" x2="56.928" y2="702.2752" gradientTransform="matrix(0 10.5026 -10.5026 0 7688.2813 -226.7646)">
		<stop  offset="0" style="stop-color:#C8C9CA"/>
		<stop  offset="7.865170e-002" style="stop-color:#C8C9CA"/>
		<stop  offset="1" style="stop-color:#939494"/>
	</linearGradient>
	<rect x="290.7" y="296.1" class="st15" width="43.7" height="60.2"/>
</g>
<g>
	<defs>
		<path id="SVGID_37_" d="M354.1,327c-6.5,22.4-29.7,40.6-51.8,40.6c-9,0-16.5-3-21.7-8.1c5.1,7.6,13.9,12.3,25.1,12.3
			c22.1,0,45.3-18.2,51.8-40.6c3.9-13.3,0.9-25.1-6.6-32.5C355.8,306,357.3,315.9,354.1,327"/>
	</defs>
	<clipPath id="SVGID_38_">
		<use xlink:href="#SVGID_37_"  style="overflow:visible;"/>
	</clipPath>
	
		<linearGradient id="SVGID_39_" gradientUnits="userSpaceOnUse" x1="48.727" y1="701.5851" x2="56.9048" y2="701.5851" gradientTransform="matrix(0 10.5108 -10.5108 0 7695.2061 -226.9385)">
		<stop  offset="0" style="stop-color:#C8C9CA"/>
		<stop  offset="7.865170e-002" style="stop-color:#C8C9CA"/>
		<stop  offset="1" style="stop-color:#939494"/>
	</linearGradient>
	<rect x="280.6" y="298.6" class="st16" width="80.8" height="73.1"/>
</g>
<g>
	<defs>
		<path id="SVGID_40_" d="M256.9,355.3c-8.1,7-19.6,12-30.2,12c-8.6,0-15.8-3-21-8c5.1,7.5,13.7,12.2,24.5,12.2
			c15.6,0,33.3-10.9,38.9-23.2l-3.5-4.2C263.1,349.7,259.4,353.2,256.9,355.3"/>
	</defs>
	<clipPath id="SVGID_41_">
		<use xlink:href="#SVGID_40_"  style="overflow:visible;"/>
	</clipPath>
	
		<linearGradient id="SVGID_42_" gradientUnits="userSpaceOnUse" x1="48.7405" y1="708.5639" x2="56.9182" y2="708.5639" gradientTransform="matrix(0 10.5057 -10.5057 0 7681.3027 -226.8316)">
		<stop  offset="0" style="stop-color:#C8C9CA"/>
		<stop  offset="7.865170e-002" style="stop-color:#C8C9CA"/>
		<stop  offset="1" style="stop-color:#939494"/>
	</linearGradient>
	<rect x="205.7" y="344.2" class="st17" width="63.3" height="27.4"/>
</g>
<g>
	<defs>
		<polygon id="SVGID_43_" points="279,292.6 268.1,322.7 267,322.7 270.4,326.9 271.6,326.9 284.8,290.4 281.3,286.3 		"/>
	</defs>
	<clipPath id="SVGID_44_">
		<use xlink:href="#SVGID_43_"  style="overflow:visible;"/>
	</clipPath>
	
		<linearGradient id="SVGID_45_" gradientUnits="userSpaceOnUse" x1="48.7474" y1="705.343" x2="56.9251" y2="705.343" gradientTransform="matrix(0 10.5039 -10.5039 0 7684.6895 -226.7901)">
		<stop  offset="0" style="stop-color:#C8C9CA"/>
		<stop  offset="7.865170e-002" style="stop-color:#C8C9CA"/>
		<stop  offset="1" style="stop-color:#939494"/>
	</linearGradient>
	<rect x="267" y="286.3" class="st18" width="17.8" height="40.6"/>
</g>
<g>
	<defs>
		<path id="SVGID_46_" d="M221,326.8c-3.5,12.1-2.2,22.1,3.9,27c-3-5.5-3.2-13.5-0.5-22.8c5-17.2,18.2-30.7,29.2-30.7
			c3.7,0,6.9,1.3,9.5,3.6c-3-4.9-7.4-7.8-13-7.8C239.2,296.1,225.9,309.5,221,326.8"/>
	</defs>
	<clipPath id="SVGID_47_">
		<use xlink:href="#SVGID_46_"  style="overflow:visible;"/>
	</clipPath>
	
		<linearGradient id="SVGID_48_" gradientUnits="userSpaceOnUse" x1="48.7601" y1="708.3116" x2="56.9378" y2="708.3116" gradientTransform="matrix(0 10.5016 -10.5016 0 7678.709 -226.7327)">
		<stop  offset="0" style="stop-color:#C8C9CA"/>
		<stop  offset="7.865170e-002" style="stop-color:#C8C9CA"/>
		<stop  offset="1" style="stop-color:#939494"/>
	</linearGradient>
	<rect x="217.4" y="296.1" class="st19" width="45.7" height="57.7"/>
</g>
<g>
	<defs>
		<path id="SVGID_49_" d="M127.5,307.5c5.3,8,15.1,12.6,24.3,16.4c6.4,2.6,12.4,5.1,16.4,8.6c-3.2-5.9-11.2-9.2-19.8-12.8
			C140.9,316.7,133,313,127.5,307.5z"/>
	</defs>
	<clipPath id="SVGID_50_">
		<use xlink:href="#SVGID_49_"  style="overflow:visible;"/>
	</clipPath>
	
		<linearGradient id="SVGID_51_" gradientUnits="userSpaceOnUse" x1="48.758" y1="716.0399" x2="56.9357" y2="716.0399" gradientTransform="matrix(0 10.5 -10.5 0 7666.2109 -226.7076)">
		<stop  offset="0" style="stop-color:#C8C9CA"/>
		<stop  offset="7.865170e-002" style="stop-color:#C8C9CA"/>
		<stop  offset="1" style="stop-color:#939494"/>
	</linearGradient>
	<rect x="127.5" y="307.5" class="st20" width="40.7" height="25"/>
</g>
<g>
	<defs>
		<path id="SVGID_52_" d="M114.2,316l0.4,4.1l0.6,4.3c1.7,11.2,5.5,19.4,10.9,24.8c-4.7-6.8-7.7-16.4-8.4-29L114.2,316z"/>
	</defs>
	<clipPath id="SVGID_53_">
		<use xlink:href="#SVGID_52_"  style="overflow:visible;"/>
	</clipPath>
	
		<linearGradient id="SVGID_54_" gradientUnits="userSpaceOnUse" x1="48.7764" y1="718.3503" x2="56.9541" y2="718.3503" gradientTransform="matrix(0 10.4948 -10.4948 0 7659.0776 -226.5917)">
		<stop  offset="0" style="stop-color:#C8C9CA"/>
		<stop  offset="7.865170e-002" style="stop-color:#C8C9CA"/>
		<stop  offset="1" style="stop-color:#939494"/>
	</linearGradient>
	<rect x="114.2" y="316" class="st21" width="11.8" height="33.2"/>
</g>
<g>
	<defs>
		<path id="SVGID_55_" d="M142.4,275.2c-0.9,5.6,1.1,9.6,4.8,12.8c-1.3-2.4-1.9-5.2-1.4-8.6c1.4-8.9,11.3-15.3,22.6-15.3
			c8.6,0,15.9,3.3,21.3,8.7c-5.6-8-14.1-12.9-24.7-12.9C153.7,259.9,143.8,266.3,142.4,275.2"/>
	</defs>
	<clipPath id="SVGID_56_">
		<use xlink:href="#SVGID_55_"  style="overflow:visible;"/>
	</clipPath>
	
		<linearGradient id="SVGID_57_" gradientUnits="userSpaceOnUse" x1="48.7887" y1="714.5415" x2="56.9664" y2="714.5415" gradientTransform="matrix(0 10.488 -10.488 0 7659.7656 -226.4581)">
		<stop  offset="0" style="stop-color:#C8C9CA"/>
		<stop  offset="7.865170e-002" style="stop-color:#C8C9CA"/>
		<stop  offset="1" style="stop-color:#939494"/>
	</linearGradient>
	<rect x="141.5" y="259.9" class="st22" width="48.2" height="28.1"/>
</g>
<g>
	<defs>
		<polygon id="SVGID_58_" points="197.7,292 196.6,292 200.1,296.2 201.2,296.2 216.2,254.2 212.7,250 		"/>
	</defs>
	<clipPath id="SVGID_59_">
		<use xlink:href="#SVGID_58_"  style="overflow:visible;"/>
	</clipPath>
	
		<linearGradient id="SVGID_60_" gradientUnits="userSpaceOnUse" x1="48.7536" y1="711.1473" x2="56.9313" y2="711.1473" gradientTransform="matrix(0 10.5032 -10.5032 0 7675.6787 -226.7687)">
		<stop  offset="0" style="stop-color:#C8C9CA"/>
		<stop  offset="7.865170e-002" style="stop-color:#C8C9CA"/>
		<stop  offset="1" style="stop-color:#939494"/>
	</linearGradient>
	<rect x="196.6" y="250" class="st23" width="19.5" height="46.2"/>
</g>
<g>
	<defs>
		<path id="SVGID_61_" d="M192.2,332.7c-3.2,19.4-22.3,34.8-45.3,34.8c-11.6,0-24.5-3.9-31.9-9.2l-19.3,9.3h-1l3.4,4.1h1l19.3-9.3
			c7.4,5.4,20.2,9.3,31.9,9.3c23,0,42.1-15.4,45.3-34.9c1.8-10.8-1.3-18.1-6.8-23.5C192,318.2,193.5,324.4,192.2,332.7"/>
	</defs>
	<clipPath id="SVGID_62_">
		<use xlink:href="#SVGID_61_"  style="overflow:visible;"/>
	</clipPath>
	
		<linearGradient id="SVGID_63_" gradientUnits="userSpaceOnUse" x1="48.7701" y1="716.191" x2="56.9479" y2="716.191" gradientTransform="matrix(0 10.4981 -10.4981 0 7664.6597 -226.6583)">
		<stop  offset="0" style="stop-color:#C8C9CA"/>
		<stop  offset="7.865170e-002" style="stop-color:#C8C9CA"/>
		<stop  offset="1" style="stop-color:#939494"/>
	</linearGradient>
	<rect x="94.6" y="313.4" class="st24" width="102.7" height="58.3"/>
</g>
<g>
	<defs>
		<path id="SVGID_64_" d="M482.9,326.3c3.8,6.1,11.2,9.7,18.1,12.5c4.3,1.7,8.4,3.4,11.3,5.6c-2-4.6-8.1-7.2-14.7-9.8
			C492.4,332.5,486.9,329.9,482.9,326.3z"/>
	</defs>
	<clipPath id="SVGID_65_">
		<use xlink:href="#SVGID_64_"  style="overflow:visible;"/>
	</clipPath>
	
		<linearGradient id="SVGID_66_" gradientUnits="userSpaceOnUse" x1="48.882" y1="686.6706" x2="57.0597" y2="686.6706" gradientTransform="matrix(0 10.4612 -10.4612 0 7680.9883 -225.8626)">
		<stop  offset="0" style="stop-color:#C8C9CA"/>
		<stop  offset="7.865170e-002" style="stop-color:#C8C9CA"/>
		<stop  offset="1" style="stop-color:#939494"/>
	</linearGradient>
	<rect x="482.9" y="326.3" class="st25" width="29.4" height="18.1"/>
</g>
<g>
	<defs>
		<path id="SVGID_67_" d="M530.1,344.3c-2.3,13.5-16.9,23.2-33.5,23.2c-8.2,0-17-2.5-22.5-6l-13.2,6.1h-1l3.5,4.2h1l13.1-6
			c5.4,3.5,14.4,6,22.5,6c16.6,0,31.2-9.8,33.5-23.3c1.3-7.8-1.3-13.1-5.6-17.2C530,334.8,530.9,339,530.1,344.3"/>
	</defs>
	<clipPath id="SVGID_68_">
		<use xlink:href="#SVGID_67_"  style="overflow:visible;"/>
	</clipPath>
	
		<linearGradient id="SVGID_69_" gradientUnits="userSpaceOnUse" x1="48.7621" y1="686.8193" x2="56.9399" y2="686.8193" gradientTransform="matrix(0 10.4995 -10.4995 0 7708.6079 -226.6933)">
		<stop  offset="0" style="stop-color:#C8C9CA"/>
		<stop  offset="7.865170e-002" style="stop-color:#C8C9CA"/>
		<stop  offset="1" style="stop-color:#939494"/>
	</linearGradient>
	<rect x="459.9" y="331.3" class="st26" width="74.9" height="40.5"/>
</g>
<g>
	<defs>
		<polygon id="SVGID_70_" points="541.9,292.7 533.8,315.1 532.5,315.1 535.9,319.2 537.2,319.2 547.5,290.6 544.1,286.4 		"/>
	</defs>
	<clipPath id="SVGID_71_">
		<use xlink:href="#SVGID_70_"  style="overflow:visible;"/>
	</clipPath>
	
		<linearGradient id="SVGID_72_" gradientUnits="userSpaceOnUse" x1="48.7573" y1="683.2513" x2="56.935" y2="683.2513" gradientTransform="matrix(0 10.4989 -10.4989 0 7713.3784 -226.6898)">
		<stop  offset="0" style="stop-color:#C8C9CA"/>
		<stop  offset="7.865170e-002" style="stop-color:#C8C9CA"/>
		<stop  offset="1" style="stop-color:#939494"/>
	</linearGradient>
	<rect x="532.5" y="286.4" class="st27" width="15" height="32.8"/>
</g>
<g>
	<defs>
		<path id="SVGID_73_" d="M473.8,332l0.3,3.9l0.6,4.1c1.4,7,4,12.1,7.8,15.5c-3-4.6-4.8-11-5.3-19.4L473.8,332z"/>
	</defs>
	<clipPath id="SVGID_74_">
		<use xlink:href="#SVGID_73_"  style="overflow:visible;"/>
	</clipPath>
	
		<linearGradient id="SVGID_75_" gradientUnits="userSpaceOnUse" x1="48.7174" y1="688.475" x2="56.8951" y2="688.475" gradientTransform="matrix(0 10.514 -10.514 0 7716.7559 -227.008)">
		<stop  offset="0" style="stop-color:#C8C9CA"/>
		<stop  offset="7.865170e-002" style="stop-color:#C8C9CA"/>
		<stop  offset="1" style="stop-color:#939494"/>
	</linearGradient>
	<rect x="473.8" y="332" class="st28" width="8.7" height="23.6"/>
</g>
<g>
	<defs>
		<path id="SVGID_76_" d="M493.2,303.1c-0.6,4.1,1.1,7,4,9.3c-0.7-1.4-0.9-3.1-0.6-5.1c1-6.2,8.2-10.4,16.3-10.4
			c6.1,0,11.3,2.2,15.2,5.9c-4-6.2-10.5-10.1-18.6-10.1C501.4,292.8,494.2,296.9,493.2,303.1"/>
	</defs>
	<clipPath id="SVGID_77_">
		<use xlink:href="#SVGID_76_"  style="overflow:visible;"/>
	</clipPath>
	
		<linearGradient id="SVGID_78_" gradientUnits="userSpaceOnUse" x1="48.7521" y1="685.7391" x2="56.9298" y2="685.7391" gradientTransform="matrix(0 10.5022 -10.5022 0 7712.1821 -226.755)">
		<stop  offset="0" style="stop-color:#C8C9CA"/>
		<stop  offset="7.865170e-002" style="stop-color:#C8C9CA"/>
		<stop  offset="1" style="stop-color:#939494"/>
	</linearGradient>
	<rect x="492.6" y="292.8" class="st29" width="35.6" height="19.7"/>
</g>
<g>
	<path class="st30" d="M378.8,342.4l16-44.5H415l2.2-6.1l1.5-4.2h-15.3h-5l3.4-9.4l2.4-6.8H403l-44.3,25.2l-0.4,1.4h8.8h6.7
		l-1.5,4.1l-14.8,41.4c-2.8,7.8-0.9,14.7,4.2,19c3.5,3.1,8.6,4.9,14.9,4.9c8.8,0,18.5-3.4,24.9-8.4c2.5-1.9,4.4-4,5.7-6.3l-0.6-0.9
		c-6.4,3-13.5,4.4-16.6,4.4c-3.3,0-6-0.7-8-1.9C378.2,351.9,376.8,347.7,378.8,342.4"/>
	<path class="st30" d="M454.6,359c2.4-2,4.3-4.1,5.4-6.4l-0.7-0.9c-6,3-12.7,4.4-15.6,4.4c-2.5,0-4.6-0.5-6.2-1.4
		c-3.8-2.1-4.9-6.5-2.8-12.3l16-44.5h24.1l2.2-6.1l1.5-4.2h-19.1h-4.9l3.3-9.1l2.5-7.1h-1.3l-38.2,24.1l-1.8,1.1l-0.5,1.4h1.4h7h2.9
		l-1.5,4.1l-14.8,41.4c-2.8,7.9-0.9,15,4.1,19.3c3.3,2.9,8,4.6,13.7,4.6C439.5,367.3,448.5,363.9,454.6,359"/>
	<path class="st30" d="M302.3,367.6c22.1,0,45.3-18.2,51.8-40.6c3.2-11,1.7-21-3.2-28.3c-5-7.5-13.9-12.3-25.1-12.3
		c-22.1,0-45.3,18.2-51.8,40.6c-3.8,13.3-1,25.1,6.6,32.5C285.8,364.6,293.3,367.6,302.3,367.6 M296.2,327
		c5.9-17.1,15.8-30.9,28.6-30.9c5,0,8.1,2.1,9.6,5.7c2.4,5.6,1.2,14.8-2.4,25.1c-5.9,17.1-15.8,30.9-28.6,30.9
		c-2.5,0-4.6-0.6-6.2-1.6C290.7,352.2,291.4,340.6,296.2,327"/>
	<path class="st30" d="M281.3,286.3h-1l-13.8,6.3c-4.8-4.1-10.1-6.4-17.5-6.4c-20.6,0-42.7,17.3-49.8,40.8c-4,13.3-1,25,6.5,32.4
		c5.2,5,12.5,8,21,8c10.5,0,22.1-5,30.2-12c3.8-3.4,6.9-7.2,8.7-11.1l-0.8-0.7C256,350.7,244,357,235.3,357c-4.3,0-7.8-1.2-10.4-3.2
		c-6.1-4.9-7.4-14.9-3.9-27c5-17.2,18.2-30.7,29.2-30.7c5.6,0,10,2.9,13,7.8c2.8,4.7,4.2,11.3,3.8,18.9h1.2l1.8-5l9.1-25.1
		L281.3,286.3z"/>
	<path class="st30" d="M142.4,275.2c1.4-8.9,11.3-15.3,22.6-15.3c10.6,0,19.1,5,24.7,12.9c3.7,5.3,6.1,11.9,6.9,19.3h1.1l1.1-2.9
		l11.7-32.8l2.3-6.3h-1l-17.6,8.1c-7.6-5.2-17.7-8.3-28.4-8.3c-23,0-42.1,15.7-45.2,34.2c-1.8,10.5,1.4,17.9,7,23.5
		c5.6,5.5,13.4,9.2,20.9,12.3c8.6,3.5,16.7,6.9,19.8,12.8c1.3,2.4,1.8,5.2,1.2,8.6c-1.6,8.9-11.1,16.4-22.4,16.4
		c-8.3,0-15.5-2.7-21-8.4c-5.4-5.5-9.2-13.7-10.9-24.8c-0.4-2.6-0.8-5.4-0.9-8.4h-1.1l-18.6,51.6h1l4.8-2.3l14.5-7
		c7.4,5.3,20.3,9.2,31.9,9.2c23,0,42.1-15.4,45.3-34.8c1.4-8.3-0.1-14.5-3.3-19.3c-5.9-8.8-17.2-13.2-27.3-17.5
		c-5.5-2.4-10.7-4.8-14.3-7.9C143.6,284.8,141.5,280.8,142.4,275.2"/>
	<path class="st30" d="M493.2,303.1c1-6.2,8.2-10.4,16.4-10.4c8.2,0,14.6,3.9,18.6,10.1c2.2,3.4,3.7,7.6,4.3,12.2h1.3l0.7-2.1
		l7.3-20.3l2.2-6.3h-1l-11.9,5.4c-6.1-3.8-13.9-6-21.2-6c-16.7,0-30.4,10.6-32.7,23.5c-1.3,7.6,1.3,12.9,5.6,17
		c4,3.7,9.5,6.3,14.7,8.3c6.6,2.6,12.7,5.2,14.7,9.8c0.7,1.5,0.9,3.3,0.5,5.3c-1.1,6.2-7.9,11-16.1,11c-5.7,0-10.5-1.7-14.2-5.1
		c-3.7-3.4-6.3-8.5-7.8-15.5c-0.5-2.4-0.8-5.1-1-8h-1.1l-12.7,35.6h1l4.7-2.1l8.5-3.9c5.4,3.5,14.3,6,22.5,6
		c16.6,0,31.2-9.7,33.5-23.2c0.9-5.4-0.1-9.6-2.2-13c-4.3-7-13.2-10.6-20.8-13.8c-3.8-1.5-7.3-3.1-9.8-5.1
		C494.3,310.2,492.6,307.3,493.2,303.1"/>
	<path class="st30" d="M552.5,346.6c-5.8,0-10.6,4.5-10.6,10.5c0,6.1,4.8,10.5,10.6,10.5c5.7,0,10.6-4.4,10.6-10.5
		C563.1,351.1,558.2,346.6,552.5,346.6 M552.5,365.8c-5,0-8.9-3.9-8.9-8.7c0-4.9,3.9-8.7,8.9-8.7c4.9,0,8.8,3.8,8.8,8.7
		C561.3,362,557.4,365.8,552.5,365.8"/>
	<path class="st30" d="M557.3,354.5c0-2.4-1.4-3.4-4.3-3.4h-4.6v12.1h1.8v-5.3h2.1l3.2,5.3h2l-3.4-5.3
		C555.9,357.6,557.3,356.6,557.3,354.5 M550.2,356.4v-3.7h2.5c1.3,0,2.7,0.3,2.7,1.8c0,1.9-1.4,2-3,2H550.2z"/>
</g>
</svg>
