<?xml version="1.0" encoding="utf-8"?>
<!-- Generator: Adobe Illustrator 19.2.1, SVG Export Plug-In . SVG Version: 6.00 Build 0)  -->
<svg version="1.1" id="layer" xmlns="http://www.w3.org/2000/svg" xmlns:xlink="http://www.w3.org/1999/xlink" x="0px" y="0px"
	 viewBox="0 0 652 652" style="enable-background:new 0 0 652 652;" xml:space="preserve">
<style type="text/css">
	.st0{fill:#AC162C;}
	.st1{fill:#FEFEFE;}
</style>
<g id="Symbols">
	<g id="d_x2F_navigation_x2F_new" transform="translate(-74.000000, -59.000000)">
		<g id="d_x2F_case-logo" transform="translate(74.000000, 59.000000)">
			<g id="Case-Logo">
				<path id="Fill-1" class="st0" d="M320,469.7c165.7,0,300-66.4,300-148.2c0-81.9-134.3-148.2-300-148.2
					c-165.7,0-300,66.4-300,148.2C20,403.4,154.3,469.7,320,469.7"/>
				<path id="Fill-4" class="st1" d="M222.8,419.7c-15.4,0-31.2-1.2-47.4-3.9c-33.2-5.7-101.9-37.7-101.9-100.4
					c0-27.6,14.7-51.9,42.5-70.2c28.5-18.7,60.5-25.1,69.6-26.6c29.3-4.9,52.5-1.7,73.1,2.4c7.4,1.5,13.8,3.2,21,5.7l5.6-8.7h9.8
					l1,45.5l-9.1,0l-0.4-1.2c-3.9-11.1-8.7-14.7-16.8-20c-2.2-1-34.6-14.4-78.6-8.5c-32.4,4.4-71.3,22.1-72.9,81.6
					c-1.3,51,26.4,68.7,68.4,79.7c37.7,9.9,99.2,5.5,140.5-2.6c10.3-2,22-4.7,34.3-7.6c38.7-8.9,86.8-18.8,124.3-17.1
					c37.6,1.8,57.4,16.4,66.8,31.4c4,6.4,3.1,9.5,1.6,10.9c-2.2,2.1-6.2,1.3-8.8-0.5c-0.4-0.3-0.9-0.7-1.5-1.1
					c-51.3-36.2-125.6-21.5-174.2-11c-13.3,2.9-28.4,6.2-45.9,9.6C290.5,413.9,257.4,419.7,222.8,419.7"/>
				<path id="Fill-6" class="st1" d="M305.7,351.9h-59.4v-8.8h6.9c4.8,0,6.9-0.5,7.9-0.9c0.6-0.3,1.3-0.7,1.3-1.2
					c0-0.6-0.3-1.3-0.8-2.2l-8.7-15.3h-42.7l-3.8,6.5c-2.1,3.7-2.5,5.4-2.5,6.1c0,2,1,3.6,3.1,4.9c2.3,1.4,5.6,2.1,9.7,2.1h5.5v8.8
					h-48.8v-8.8h4.3c2.6,0,4.9-0.6,6.8-1.8c2.9-1.7,5.1-4,6.7-6.7l43.3-75.6h11.1l45.2,79.3c1.1,1.9,2.3,3.2,3.5,3.8
					c1.3,0.7,3,1,5.2,1h6.1V351.9z M215.5,314.4h32.3l-16.1-28.3L215.5,314.4z"/>
				<path id="Fill-8" class="st1" d="M363.1,351.9c-12,0-23.2-3.1-33.2-9.3L321,351h-8.2v-36.3h9.8l0.4,1.1
					c6.7,18.3,20,27.1,40.6,27.1c8.3,0,14.8-1.4,19.3-4.3c4.3-2.7,6.4-6,6.4-9.9c0-2.7-0.9-5-2.7-6.8c-1.9-1.9-5-3.5-9.1-4.8
					c-2.3-0.7-8.3-1.8-17.8-3.4c-13-2.2-22.4-4.5-28-6.8c-5.8-2.4-10.1-5.4-12.8-9c-2.8-3.6-4.2-8.1-4.2-13.3
					c0-8.6,3.8-15.8,11.4-21.2c7.4-5.3,17.4-8,29.8-8c11.4,0,21.9,2.9,31.5,8.6l6.9-7.5h8l0.8,34.1h-9.9l-0.4-1
					c-3.6-8.5-8.6-14.9-15.1-19.1c-6.5-4.2-13.8-6.3-21.7-6.3c-6.7,0-12.1,1.4-16.2,4.1c-3.9,2.6-5.9,5.6-5.9,9c0,2,0.7,3.8,2.2,5.5
					c1.5,1.8,4.2,3.4,7.7,4.7c3.8,1.4,10.5,2.8,20.1,4.3c11.5,1.8,19.3,3.4,23.8,4.9c7.1,2.4,12.6,5.7,16.2,9.7
					c3.7,4.1,5.6,9.2,5.6,15.1c0,8.8-4,15.9-11.9,21.1C388.1,348.8,376.6,351.9,363.1,351.9"/>
				<path id="Fill-10" class="st1" d="M525.3,351.9H420v-8.9h11.7c1.9,0,3.3-0.4,4.2-1.1c1-0.8,1.7-1.4,1.7-3v-67.5
					c0-1.5-0.9-2.2-1.5-2.6c-0.5-0.3-2-0.8-5.6-0.8H420V259h101.1l2.4,34.6h-9.8l-0.3-1.3c-1.5-7.1-3.4-12.3-5.6-15.3
					c-2.2-3-5.1-5.3-8.6-6.8c-3.6-1.5-8.5-2.3-14.4-2.3h-15.4c-2.5,0-3.7,0.5-4.3,0.8c-0.6,0.4-0.9,1-0.9,1.8v29.4h3.6
					c5.6,0,10-1.3,13-3.7c3-2.4,4.7-6.5,5.3-12.1l0.1-1.5h9.9v45h-10l-0.1-1.5c-0.4-6.4-2.1-10.9-5.1-13.4c-3-2.6-7.8-3.9-14.1-3.9
					h-2.7v31.5c0,1.1,0.4,1.4,0.8,1.6c1.3,0.7,3.4,1.1,6.2,1.1h13.5c8.9,0,16.2-2.3,21.7-6.7c5.5-4.4,9-11.3,10.4-20.3l0.2-1.4h9.9
					L525.3,351.9z"/>
				<polygon id="Fill-12" class="st1" points="390.2,401.9 405,401.9 413.1,411.3 421,401.9 435.7,401.9 420.2,416.7 437.9,434 
					423.2,434 413.1,422.4 402.6,434 387.9,434 405.7,416.7 				"/>
				<polygon id="Fill-14" class="st1" points="443.8,401.9 458.6,401.9 466.6,411.3 474.6,401.9 489.2,401.9 473.7,416.7 491.4,434 
					476.8,434 466.6,422.4 456.2,434 441.4,434 459.2,416.7 				"/>
				<path id="Fill-16" class="st1" d="M541.4,346.5c0-4.9,4-8.9,8.9-8.9c4.9,0,8.9,4,8.9,8.9c0,4.9-4,8.9-8.9,8.9
					C545.4,355.4,541.4,351.4,541.4,346.5z M557.1,346.5c0-4.2-3-7.2-6.8-7.2c-3.7,0-6.8,3-6.8,7.2c0,4.2,3,7.2,6.8,7.2
					C554.1,353.7,557.1,350.7,557.1,346.5z M546.9,341.4h3.8c2.4,0,3.7,0.8,3.7,3c0,1.7-1,2.6-2.6,2.7l2.7,4.4h-1.9l-2.6-4.4h-1.1
					v4.4h-1.9V341.4z M548.8,345.7h1.7c1.1,0,2.1-0.1,2.1-1.5c0-1.2-1.1-1.4-2.1-1.4h-1.7V345.7z"/>
			</g>
		</g>
	</g>
</g>
</svg>
